<?xml version="1.0" encoding="UTF-8"?>
<svg xmlns="http://www.w3.org/2000/svg" xmlns:xlink="http://www.w3.org/1999/xlink" width="700pt" height="700pt" viewBox="0 0 700 700" version="1.1">
<g id="surface1">
<path style="fill:none;stroke-width:2;stroke-linecap:butt;stroke-linejoin:round;stroke:rgb(0%,0%,0%);stroke-opacity:1;stroke-miterlimit:10;" d="M 500 350 C 393.71875 424.691406 277.230469 609.789062 275 479.902344 C 272.769531 350.019531 147.421875 195.617188 275 220.097656 C 402.578125 244.574219 606.28125 275.308594 500 350 "/>
<path style="fill:none;stroke-width:2;stroke-linecap:butt;stroke-linejoin:round;stroke:rgb(50%,50%,50%);stroke-opacity:1;stroke-miterlimit:10;" d="M 500 350 C 500 432.84375 432.84375 500 350 500 C 267.15625 500 200 432.84375 200 350 C 200 267.15625 267.15625 200 350 200 C 432.84375 200 500 267.15625 500 350 "/>
<path style=" stroke:none;fill-rule:nonzero;fill:rgb(100%,0%,0%);fill-opacity:1;" d="M 280 479.902344 C 280 486.570312 270 486.570312 270 479.902344 C 270 473.238281 280 473.238281 280 479.902344 "/>
<path style="fill:none;stroke-width:2;stroke-linecap:butt;stroke-linejoin:round;stroke:rgb(100%,0%,0%);stroke-opacity:1;stroke-miterlimit:10;" d="M 404.902344 479.902344 C 404.902344 551.648438 346.742188 609.808594 275 609.808594 C 203.257812 609.808594 145.097656 551.648438 145.097656 479.902344 C 145.097656 408.160156 203.257812 350 275 350 C 346.742188 350 404.902344 408.160156 404.902344 479.902344 "/>
<path style=" stroke:none;fill-rule:nonzero;fill:rgb(100%,0%,0%);fill-opacity:1;" d="M 280 220.097656 C 280 226.761719 270 226.761719 270 220.097656 C 270 213.429688 280 213.429688 280 220.097656 "/>
<path style="fill:none;stroke-width:2;stroke-linecap:butt;stroke-linejoin:round;stroke:rgb(100%,0%,0%);stroke-opacity:1;stroke-miterlimit:10;" d="M 404.902344 220.097656 C 404.902344 291.839844 346.742188 350 275 350 C 203.257812 350 145.097656 291.839844 145.097656 220.097656 C 145.097656 148.351562 203.257812 90.191406 275 90.191406 C 346.742188 90.191406 404.902344 148.351562 404.902344 220.097656 "/>
<path style=" stroke:none;fill-rule:nonzero;fill:rgb(100%,0%,0%);fill-opacity:1;" d="M 505 350 C 505 356.667969 495 356.667969 495 350 C 495 343.332031 505 343.332031 505 350 "/>
<path style="fill:none;stroke-width:2;stroke-linecap:butt;stroke-linejoin:round;stroke:rgb(100%,0%,0%);stroke-opacity:1;stroke-miterlimit:10;" d="M 629.902344 350 C 629.902344 421.742188 571.742188 479.902344 500 479.902344 C 428.257812 479.902344 370.097656 421.742188 370.097656 350 C 370.097656 278.257812 428.257812 220.097656 500 220.097656 C 571.742188 220.097656 629.902344 278.257812 629.902344 350 "/>
<path style=" stroke:none;fill-rule:nonzero;fill:rgb(0%,100%,0%);fill-opacity:1;" d="M 398.71875 424.691406 C 398.71875 431.359375 388.71875 431.359375 388.71875 424.691406 C 388.71875 418.027344 398.71875 418.027344 398.71875 424.691406 "/>
<path style=" stroke:none;fill-rule:nonzero;fill:rgb(0%,0%,100%);fill-opacity:1;" d="M 282.230469 609.789062 C 282.230469 616.457031 272.230469 616.457031 272.230469 609.789062 C 272.230469 603.121094 282.230469 603.121094 282.230469 609.789062 "/>
<path style=" stroke:none;fill-rule:nonzero;fill:rgb(0%,100%,0%);fill-opacity:1;" d="M 277.769531 350.019531 C 277.769531 356.6875 267.769531 356.6875 267.769531 350.019531 C 267.769531 343.351562 277.769531 343.351562 277.769531 350.019531 "/>
<path style=" stroke:none;fill-rule:nonzero;fill:rgb(0%,0%,100%);fill-opacity:1;" d="M 152.421875 195.617188 C 152.421875 202.285156 142.421875 202.285156 142.421875 195.617188 C 142.421875 188.949219 152.421875 188.949219 152.421875 195.617188 "/>
<path style=" stroke:none;fill-rule:nonzero;fill:rgb(0%,100%,0%);fill-opacity:1;" d="M 407.578125 244.574219 C 407.578125 251.242188 397.578125 251.242188 397.578125 244.574219 C 397.578125 237.90625 407.578125 237.90625 407.578125 244.574219 "/>
<path style=" stroke:none;fill-rule:nonzero;fill:rgb(0%,0%,100%);fill-opacity:1;" d="M 611.28125 275.308594 C 611.28125 281.972656 601.28125 281.972656 601.28125 275.308594 C 601.28125 268.640625 611.28125 268.640625 611.28125 275.308594 "/>
<path style=" stroke:none;fill-rule:nonzero;fill:rgb(0%,0%,0%);fill-opacity:0.2;" d="M 275 479.902344 L 500 350 L 393.71875 424.691406 L 277.230469 609.789062 L 275 479.902344 "/>
<path style=" stroke:none;fill-rule:nonzero;fill:rgb(0%,0%,0%);fill-opacity:0.2;" d="M 275 220.097656 L 275 479.902344 L 272.769531 350.019531 L 147.421875 195.617188 L 275 220.097656 "/>
<path style=" stroke:none;fill-rule:nonzero;fill:rgb(0%,0%,0%);fill-opacity:0.2;" d="M 500 350 L 275 220.097656 L 402.578125 244.574219 L 606.28125 275.308594 L 500 350 "/>
</g>
</svg>
