<?xml version="1.0" encoding="UTF-8"?>
<svg xmlns="http://www.w3.org/2000/svg" xmlns:xlink="http://www.w3.org/1999/xlink" width="600pt" height="600pt" viewBox="0 0 600 600" version="1.1">
<g id="surface1">
<path style="fill:none;stroke-width:2;stroke-linecap:butt;stroke-linejoin:round;stroke:rgb(0%,0%,0%);stroke-opacity:1;stroke-miterlimit:10;" d="M 500 300 C 405.339844 332.246094 489.308594 518.191406 400 473.207031 C 310.691406 428.21875 256.644531 555.613281 200 473.207031 C 143.355469 390.796875 20.53125 360.703125 100 300 C 179.46875 239.296875 100.328125 134.90625 200 126.792969 C 299.671875 118.683594 400.574219 26.796875 400 126.792969 C 399.425781 226.792969 594.660156 267.753906 500 300 "/>
<path style="fill:none;stroke-width:2;stroke-linecap:butt;stroke-linejoin:round;stroke:rgb(50%,50%,50%);stroke-opacity:1;stroke-miterlimit:10;" d="M 500 300 C 500 410.457031 410.457031 500 300 500 C 189.542969 500 100 410.457031 100 300 C 100 189.542969 189.542969 100 300 100 C 410.457031 100 500 189.542969 500 300 "/>
<path style=" stroke:none;fill-rule:nonzero;fill:rgb(100%,0%,0%);fill-opacity:1;" d="M 405 473.207031 C 405 479.871094 395 479.871094 395 473.207031 C 395 466.539062 405 466.539062 405 473.207031 "/>
<path style="fill:none;stroke-width:2;stroke-linecap:butt;stroke-linejoin:round;stroke:rgb(100%,0%,0%);stroke-opacity:1;stroke-miterlimit:10;" d="M 500 473.207031 C 500 528.433594 455.226562 573.207031 400 573.207031 C 344.773438 573.207031 300 528.433594 300 473.207031 C 300 417.976562 344.773438 373.207031 400 373.207031 C 455.226562 373.207031 500 417.976562 500 473.207031 "/>
<path style=" stroke:none;fill-rule:nonzero;fill:rgb(100%,0%,0%);fill-opacity:1;" d="M 205 473.207031 C 205 479.871094 195 479.871094 195 473.207031 C 195 466.539062 205 466.539062 205 473.207031 "/>
<path style="fill:none;stroke-width:2;stroke-linecap:butt;stroke-linejoin:round;stroke:rgb(100%,0%,0%);stroke-opacity:1;stroke-miterlimit:10;" d="M 300 473.207031 C 300 528.433594 255.226562 573.207031 200 573.207031 C 144.773438 573.207031 100 528.433594 100 473.207031 C 100 417.976562 144.773438 373.207031 200 373.207031 C 255.226562 373.207031 300 417.976562 300 473.207031 "/>
<path style=" stroke:none;fill-rule:nonzero;fill:rgb(100%,0%,0%);fill-opacity:1;" d="M 105 300 C 105 306.667969 95 306.667969 95 300 C 95 293.332031 105 293.332031 105 300 "/>
<path style="fill:none;stroke-width:2;stroke-linecap:butt;stroke-linejoin:round;stroke:rgb(100%,0%,0%);stroke-opacity:1;stroke-miterlimit:10;" d="M 200 300 C 200 355.226562 155.226562 400 100 400 C 44.773438 400 0 355.226562 0 300 C 0 244.773438 44.773438 200 100 200 C 155.226562 200 200 244.773438 200 300 "/>
<path style=" stroke:none;fill-rule:nonzero;fill:rgb(100%,0%,0%);fill-opacity:1;" d="M 205 126.792969 C 205 133.460938 195 133.460938 195 126.792969 C 195 120.128906 205 120.128906 205 126.792969 "/>
<path style="fill:none;stroke-width:2;stroke-linecap:butt;stroke-linejoin:round;stroke:rgb(100%,0%,0%);stroke-opacity:1;stroke-miterlimit:10;" d="M 300 126.792969 C 300 182.023438 255.226562 226.792969 200 226.792969 C 144.773438 226.792969 100 182.023438 100 126.792969 C 100 71.566406 144.773438 26.792969 200 26.792969 C 255.226562 26.792969 300 71.566406 300 126.792969 "/>
<path style=" stroke:none;fill-rule:nonzero;fill:rgb(100%,0%,0%);fill-opacity:1;" d="M 405 126.792969 C 405 133.460938 395 133.460938 395 126.792969 C 395 120.128906 405 120.128906 405 126.792969 "/>
<path style="fill:none;stroke-width:2;stroke-linecap:butt;stroke-linejoin:round;stroke:rgb(100%,0%,0%);stroke-opacity:1;stroke-miterlimit:10;" d="M 500 126.792969 C 500 182.023438 455.226562 226.792969 400 226.792969 C 344.773438 226.792969 300 182.023438 300 126.792969 C 300 71.566406 344.773438 26.792969 400 26.792969 C 455.226562 26.792969 500 71.566406 500 126.792969 "/>
<path style=" stroke:none;fill-rule:nonzero;fill:rgb(100%,0%,0%);fill-opacity:1;" d="M 505 300 C 505 306.667969 495 306.667969 495 300 C 495 293.332031 505 293.332031 505 300 "/>
<path style="fill:none;stroke-width:2;stroke-linecap:butt;stroke-linejoin:round;stroke:rgb(100%,0%,0%);stroke-opacity:1;stroke-miterlimit:10;" d="M 600 300 C 600 355.226562 555.226562 400 500 400 C 444.773438 400 400 355.226562 400 300 C 400 244.773438 444.773438 200 500 200 C 555.226562 200 600 244.773438 600 300 "/>
<path style=" stroke:none;fill-rule:nonzero;fill:rgb(0%,100%,0%);fill-opacity:1;" d="M 410.339844 332.246094 C 410.339844 338.914062 400.339844 338.914062 400.339844 332.246094 C 400.339844 325.578125 410.339844 325.578125 410.339844 332.246094 "/>
<path style=" stroke:none;fill-rule:nonzero;fill:rgb(0%,0%,100%);fill-opacity:1;" d="M 494.308594 518.191406 C 494.308594 524.859375 484.308594 524.859375 484.308594 518.191406 C 484.308594 511.523438 494.308594 511.523438 494.308594 518.191406 "/>
<path style=" stroke:none;fill-rule:nonzero;fill:rgb(0%,100%,0%);fill-opacity:1;" d="M 315.691406 428.21875 C 315.691406 434.886719 305.691406 434.886719 305.691406 428.21875 C 305.691406 421.550781 315.691406 421.550781 315.691406 428.21875 "/>
<path style=" stroke:none;fill-rule:nonzero;fill:rgb(0%,0%,100%);fill-opacity:1;" d="M 261.644531 555.613281 C 261.644531 562.28125 251.644531 562.28125 251.644531 555.613281 C 251.644531 548.945312 261.644531 548.945312 261.644531 555.613281 "/>
<path style=" stroke:none;fill-rule:nonzero;fill:rgb(0%,100%,0%);fill-opacity:1;" d="M 148.355469 390.796875 C 148.355469 397.464844 138.355469 397.464844 138.355469 390.796875 C 138.355469 384.128906 148.355469 384.128906 148.355469 390.796875 "/>
<path style=" stroke:none;fill-rule:nonzero;fill:rgb(0%,0%,100%);fill-opacity:1;" d="M 25.53125 360.703125 C 25.53125 367.371094 15.53125 367.371094 15.53125 360.703125 C 15.53125 354.035156 25.53125 354.035156 25.53125 360.703125 "/>
<path style=" stroke:none;fill-rule:nonzero;fill:rgb(0%,100%,0%);fill-opacity:1;" d="M 184.46875 239.296875 C 184.46875 245.964844 174.46875 245.964844 174.46875 239.296875 C 174.46875 232.628906 184.46875 232.628906 184.46875 239.296875 "/>
<path style=" stroke:none;fill-rule:nonzero;fill:rgb(0%,0%,100%);fill-opacity:1;" d="M 105.328125 134.90625 C 105.328125 141.574219 95.328125 141.574219 95.328125 134.90625 C 95.328125 128.242188 105.328125 128.242188 105.328125 134.90625 "/>
<path style=" stroke:none;fill-rule:nonzero;fill:rgb(0%,100%,0%);fill-opacity:1;" d="M 304.671875 118.683594 C 304.671875 125.347656 294.671875 125.347656 294.671875 118.683594 C 294.671875 112.015625 304.671875 112.015625 304.671875 118.683594 "/>
<path style=" stroke:none;fill-rule:nonzero;fill:rgb(0%,0%,100%);fill-opacity:1;" d="M 405.574219 26.796875 C 405.574219 33.464844 395.574219 33.464844 395.574219 26.796875 C 395.574219 20.128906 405.574219 20.128906 405.574219 26.796875 "/>
<path style=" stroke:none;fill-rule:nonzero;fill:rgb(0%,100%,0%);fill-opacity:1;" d="M 404.425781 226.792969 C 404.425781 233.460938 394.425781 233.460938 394.425781 226.792969 C 394.425781 220.125 404.425781 220.125 404.425781 226.792969 "/>
<path style=" stroke:none;fill-rule:nonzero;fill:rgb(0%,0%,100%);fill-opacity:1;" d="M 599.660156 267.753906 C 599.660156 274.421875 589.660156 274.421875 589.660156 267.753906 C 589.660156 261.085938 599.660156 261.085938 599.660156 267.753906 "/>
<path style=" stroke:none;fill-rule:nonzero;fill:rgb(0%,0%,0%);fill-opacity:0.2;" d="M 500 300 L 405.339844 332.246094 L 400 473.207031 L 489.308594 518.191406 L 500 300 "/>
<path style=" stroke:none;fill-rule:nonzero;fill:rgb(0%,0%,0%);fill-opacity:0.2;" d="M 400 473.207031 L 310.691406 428.21875 L 200 473.207031 L 256.644531 555.613281 L 400 473.207031 "/>
<path style=" stroke:none;fill-rule:nonzero;fill:rgb(0%,0%,0%);fill-opacity:0.2;" d="M 200 473.207031 L 143.355469 390.796875 L 100 300 L 20.53125 360.703125 L 200 473.207031 "/>
<path style=" stroke:none;fill-rule:nonzero;fill:rgb(0%,0%,0%);fill-opacity:0.2;" d="M 100 300 L 179.46875 239.296875 L 200 126.792969 L 100.328125 134.90625 L 100 300 "/>
<path style=" stroke:none;fill-rule:nonzero;fill:rgb(0%,0%,0%);fill-opacity:0.2;" d="M 200 126.792969 L 299.671875 118.683594 L 400 126.792969 L 400.574219 26.796875 L 200 126.792969 "/>
<path style=" stroke:none;fill-rule:nonzero;fill:rgb(0%,0%,0%);fill-opacity:0.2;" d="M 400 126.792969 L 399.425781 226.792969 L 500 300 L 594.660156 267.753906 L 400 126.792969 "/>
</g>
</svg>
