<?xml version="1.0" encoding="UTF-8"?>
<svg xmlns="http://www.w3.org/2000/svg" xmlns:xlink="http://www.w3.org/1999/xlink" width="700pt" height="700pt" viewBox="0 0 700 700" version="1.1">
<g id="surface1">
<path style="fill:none;stroke-width:1;stroke-linecap:butt;stroke-linejoin:round;stroke:rgb(0%,0%,0%);stroke-opacity:0.2;stroke-miterlimit:10;" d="M 500 350 C 457.714844 447.273438 558.820312 429.769531 456.066406 456.066406 C 353.3125 482.363281 433.699219 565.152344 350 500 C 266.300781 434.847656 238.101562 561.972656 243.933594 456.066406 C 249.765625 350.160156 95.910156 370.375 200 350 C 304.089844 329.625 150.398438 293.941406 243.933594 243.933594 C 337.472656 193.925781 247.347656 173.3125 350 200 C 452.652344 226.6875 473.550781 139.320312 456.066406 243.933594 C 438.582031 348.550781 542.285156 252.726562 500 350 "/>
<path style="fill:none;stroke-width:1;stroke-linecap:butt;stroke-linejoin:round;stroke:rgb(0%,0%,0%);stroke-opacity:0.2;stroke-miterlimit:10;" d="M 498.5 350 C 455.792969 445.929688 556.769531 429.113281 455.003906 455.003906 C 353.242188 480.898438 432.757812 563.128906 350 498.5 C 267.242188 433.871094 238.539062 559.8125 244.996094 455.003906 C 251.453125 350.199219 98.714844 371.484375 201.5 350 C 304.285156 328.515625 151.945312 293.660156 244.996094 244.996094 C 338.042969 196.332031 248.4375 174.835938 350 201.5 C 451.5625 228.164062 472.253906 141.414062 455.003906 244.996094 C 437.757812 348.574219 541.207031 254.070312 498.5 350 "/>
<path style="fill:none;stroke-width:1;stroke-linecap:butt;stroke-linejoin:round;stroke:rgb(0%,0%,0%);stroke-opacity:0.2;stroke-miterlimit:10;" d="M 497 350 C 453.890625 444.582031 554.714844 428.453125 453.945312 453.945312 C 353.175781 479.4375 431.824219 561.105469 350 497 C 268.175781 432.894531 238.988281 557.648438 246.054688 453.945312 C 253.121094 350.242188 101.535156 372.5625 203 350 C 304.464844 327.4375 153.511719 293.386719 246.054688 246.054688 C 338.597656 198.722656 249.527344 176.363281 350 203 C 450.472656 229.636719 470.957031 143.511719 453.945312 246.054688 C 436.929688 348.597656 540.109375 255.417969 497 350 "/>
<path style="fill:none;stroke-width:1;stroke-linecap:butt;stroke-linejoin:round;stroke:rgb(0%,0%,0%);stroke-opacity:0.2;stroke-miterlimit:10;" d="M 495.5 350 C 452.007812 443.238281 552.660156 427.789062 452.882812 452.882812 C 353.105469 477.976562 430.890625 559.078125 350 495.5 C 269.109375 431.921875 239.453125 555.480469 247.117188 452.882812 C 254.777344 350.285156 104.363281 373.613281 204.5 350 C 304.636719 326.386719 155.09375 293.132812 247.117188 247.117188 C 339.136719 201.101562 250.617188 177.894531 350 204.5 C 449.382812 231.105469 469.664062 145.609375 452.882812 247.117188 C 436.101562 348.621094 538.992188 256.761719 495.5 350 "/>
<path style="fill:none;stroke-width:1;stroke-linecap:butt;stroke-linejoin:round;stroke:rgb(0%,0%,0%);stroke-opacity:0.2;stroke-miterlimit:10;" d="M 494 350 C 450.144531 441.894531 550.605469 427.125 451.824219 451.824219 C 353.039062 476.519531 429.957031 557.046875 350 494 C 270.042969 430.953125 239.933594 553.3125 248.175781 451.824219 C 256.421875 350.335938 107.203125 374.632812 206 350 C 304.796875 325.367188 156.695312 292.886719 248.175781 248.175781 C 339.660156 203.464844 251.703125 179.429688 350 206 C 448.296875 232.570312 468.371094 147.707031 451.824219 248.175781 C 435.273438 348.644531 537.855469 258.105469 494 350 "/>
<path style="fill:none;stroke-width:1;stroke-linecap:butt;stroke-linejoin:round;stroke:rgb(0%,0%,0%);stroke-opacity:0.2;stroke-miterlimit:10;" d="M 492.5 350 C 448.304688 440.550781 548.550781 426.457031 450.761719 450.761719 C 352.976562 475.066406 429.027344 555.011719 350 492.5 C 270.972656 429.988281 240.425781 551.140625 249.238281 450.761719 C 258.046875 350.386719 110.050781 375.625 207.5 350 C 304.949219 324.375 158.308594 292.65625 249.238281 249.238281 C 340.164062 205.816406 252.792969 180.972656 350 207.5 C 447.207031 234.027344 467.082031 149.804688 450.761719 249.238281 C 434.445312 348.671875 536.695312 259.449219 492.5 350 "/>
<path style="fill:none;stroke-width:1;stroke-linecap:butt;stroke-linejoin:round;stroke:rgb(0%,0%,0%);stroke-opacity:0.2;stroke-miterlimit:10;" d="M 491 350 C 446.480469 439.210938 546.492188 425.785156 449.703125 449.703125 C 352.910156 473.617188 428.097656 552.976562 350 491 C 271.902344 429.023438 240.933594 548.964844 250.296875 449.703125 C 259.660156 350.441406 112.90625 376.582031 209 350 C 305.09375 323.417969 159.941406 292.441406 250.296875 250.296875 C 340.65625 208.15625 253.878906 182.519531 350 209 C 446.121094 235.480469 465.789062 151.902344 449.703125 250.296875 C 433.613281 348.695312 535.519531 260.789062 491 350 "/>
<path style="fill:none;stroke-width:1;stroke-linecap:butt;stroke-linejoin:round;stroke:rgb(0%,0%,0%);stroke-opacity:0.2;stroke-miterlimit:10;" d="M 489.5 350 C 444.679688 437.871094 544.4375 425.113281 448.640625 448.640625 C 352.847656 472.167969 427.171875 550.9375 350 489.5 C 272.828125 428.0625 241.457031 546.785156 251.359375 448.640625 C 261.261719 350.5 115.773438 377.511719 210.5 350 C 305.226562 322.488281 161.585938 292.238281 251.359375 251.359375 C 341.128906 210.480469 254.964844 184.074219 350 210.5 C 445.035156 236.925781 464.5 154 448.640625 251.359375 C 432.78125 348.714844 534.320312 262.128906 489.5 350 "/>
<path style="fill:none;stroke-width:1;stroke-linecap:butt;stroke-linejoin:round;stroke:rgb(0%,0%,0%);stroke-opacity:0.2;stroke-miterlimit:10;" d="M 488 350 C 442.898438 436.53125 542.378906 424.4375 447.582031 447.582031 C 352.785156 470.726562 426.246094 548.898438 350 488 C 273.753906 427.101562 241.992188 544.601562 252.417969 447.582031 C 262.847656 350.558594 118.644531 378.410156 212 350 C 305.355469 321.589844 163.25 292.050781 252.417969 252.417969 C 341.589844 212.789062 256.050781 185.628906 350 212 C 443.949219 238.371094 463.210938 156.097656 447.582031 252.417969 C 431.949219 348.738281 533.101562 263.46875 488 350 "/>
<path style="fill:none;stroke-width:1;stroke-linecap:butt;stroke-linejoin:round;stroke:rgb(0%,0%,0%);stroke-opacity:0.2;stroke-miterlimit:10;" d="M 486.5 350 C 441.136719 435.195312 540.316406 423.757812 446.519531 446.519531 C 352.722656 469.28125 425.324219 546.851562 350 486.5 C 274.675781 426.148438 242.542969 542.417969 253.480469 446.519531 C 264.417969 350.621094 121.527344 379.277344 213.5 350 C 305.472656 320.722656 164.925781 291.875 253.480469 253.480469 C 342.035156 215.082031 257.132812 187.195312 350 213.5 C 442.867188 239.804688 461.925781 158.199219 446.519531 253.480469 C 431.113281 348.761719 531.863281 264.804688 486.5 350 "/>
<path style="fill:none;stroke-width:1;stroke-linecap:butt;stroke-linejoin:round;stroke:rgb(0%,0%,0%);stroke-opacity:0.2;stroke-miterlimit:10;" d="M 485 350 C 439.394531 433.863281 538.257812 423.074219 445.460938 445.460938 C 352.660156 467.84375 424.402344 544.804688 350 485 C 275.597656 425.195312 243.105469 540.230469 254.539062 445.460938 C 265.976562 350.6875 124.414062 380.113281 215 350 C 305.585938 319.886719 166.617188 291.714844 254.539062 254.539062 C 342.464844 217.363281 258.21875 188.761719 350 215 C 441.78125 241.238281 460.640625 160.296875 445.460938 254.539062 C 430.277344 348.785156 530.605469 266.136719 485 350 "/>
<path style="fill:none;stroke-width:1;stroke-linecap:butt;stroke-linejoin:round;stroke:rgb(0%,0%,0%);stroke-opacity:0.2;stroke-miterlimit:10;" d="M 483.5 350 C 437.675781 432.53125 536.195312 422.390625 444.398438 444.398438 C 352.601562 466.40625 423.484375 542.757812 350 483.5 C 276.515625 424.242188 243.683594 538.042969 255.601562 444.398438 C 267.519531 350.753906 127.308594 380.921875 216.5 350 C 305.691406 319.078125 168.324219 291.570312 255.601562 255.601562 C 342.878906 219.628906 259.300781 190.335938 350 216.5 C 440.699219 242.664062 459.355469 162.394531 444.398438 255.601562 C 429.441406 348.808594 529.324219 267.46875 483.5 350 "/>
<path style="fill:none;stroke-width:1;stroke-linecap:butt;stroke-linejoin:round;stroke:rgb(0%,0%,0%);stroke-opacity:0.2;stroke-miterlimit:10;" d="M 482 350 C 435.972656 431.199219 534.132812 421.703125 443.339844 443.339844 C 352.542969 464.972656 422.566406 540.703125 350 482 C 277.433594 423.296875 244.277344 535.851562 256.660156 443.339844 C 269.046875 350.824219 130.207031 381.695312 218 350 C 305.792969 318.304688 170.046875 291.441406 256.660156 256.660156 C 343.277344 221.882812 260.382812 191.910156 350 218 C 439.617188 244.089844 458.074219 164.496094 443.339844 256.660156 C 428.601562 348.828125 528.027344 268.800781 482 350 "/>
<path style="fill:none;stroke-width:1;stroke-linecap:butt;stroke-linejoin:round;stroke:rgb(0%,0%,0%);stroke-opacity:0.2;stroke-miterlimit:10;" d="M 480.5 350 C 434.289062 429.875 532.070312 421.011719 442.277344 442.277344 C 352.484375 463.542969 421.652344 538.648438 350 480.5 C 278.347656 422.351562 244.882812 533.65625 257.722656 442.277344 C 270.5625 350.898438 133.113281 382.441406 219.5 350 C 305.886719 317.558594 171.78125 291.328125 257.722656 257.722656 C 343.664062 224.117188 261.460938 193.496094 350 219.5 C 438.539062 245.503906 456.792969 166.59375 442.277344 257.722656 C 427.761719 348.851562 526.710938 270.125 480.5 350 "/>
<path style="fill:none;stroke-width:1;stroke-linecap:butt;stroke-linejoin:round;stroke:rgb(0%,0%,0%);stroke-opacity:0.2;stroke-miterlimit:10;" d="M 479 350 C 432.628906 428.550781 530.007812 420.320312 441.214844 441.214844 C 352.425781 462.113281 420.738281 536.589844 350 479 C 279.261719 421.410156 245.503906 531.460938 258.785156 441.214844 C 272.0625 350.972656 136.023438 383.15625 221 350 C 305.976562 316.84375 173.53125 291.226562 258.785156 258.785156 C 344.035156 226.339844 262.542969 195.082031 350 221 C 437.457031 246.917969 455.511719 168.695312 441.214844 258.785156 C 426.921875 348.871094 525.371094 271.449219 479 350 "/>
<path style="fill:none;stroke-width:1;stroke-linecap:butt;stroke-linejoin:round;stroke:rgb(0%,0%,0%);stroke-opacity:0.2;stroke-miterlimit:10;" d="M 477.5 350 C 430.984375 427.230469 527.941406 419.621094 440.15625 440.15625 C 352.371094 460.6875 419.824219 534.53125 350 477.5 C 280.175781 420.46875 246.140625 529.265625 259.84375 440.15625 C 273.546875 351.046875 138.9375 383.839844 222.5 350 C 306.0625 316.160156 175.296875 291.144531 259.84375 259.84375 C 344.390625 228.542969 263.621094 196.675781 350 222.5 C 436.378906 248.324219 454.230469 170.792969 440.15625 259.84375 C 426.082031 348.894531 524.015625 272.769531 477.5 350 "/>
<path style="fill:none;stroke-width:1;stroke-linecap:butt;stroke-linejoin:round;stroke:rgb(0%,0%,0%);stroke-opacity:0.2;stroke-miterlimit:10;" d="M 476 350 C 429.363281 425.914062 525.878906 418.925781 439.09375 439.09375 C 352.3125 459.265625 418.917969 532.46875 350 476 C 281.082031 419.53125 246.789062 527.066406 260.90625 439.09375 C 275.019531 351.125 141.851562 384.496094 224 350 C 306.148438 315.503906 177.074219 291.074219 260.90625 260.90625 C 344.738281 230.734375 264.699219 198.273438 350 224 C 435.300781 249.726562 452.953125 172.894531 439.09375 260.90625 C 425.238281 348.914062 522.636719 274.085938 476 350 "/>
<path style="fill:none;stroke-width:1;stroke-linecap:butt;stroke-linejoin:round;stroke:rgb(0%,0%,0%);stroke-opacity:0.2;stroke-miterlimit:10;" d="M 474.5 350 C 427.757812 424.601562 523.8125 418.222656 438.035156 438.035156 C 352.257812 457.847656 418.007812 530.402344 350 474.5 C 281.992188 418.597656 247.453125 524.863281 261.964844 438.035156 C 276.480469 351.203125 144.773438 385.117188 225.5 350 C 306.226562 314.882812 178.863281 291.019531 261.964844 261.964844 C 345.066406 232.910156 265.777344 199.878906 350 225.5 C 434.222656 251.121094 451.675781 174.992188 438.035156 261.964844 C 424.390625 348.9375 521.242188 275.398438 474.5 350 "/>
<path style="fill:none;stroke-width:1;stroke-linecap:butt;stroke-linejoin:round;stroke:rgb(0%,0%,0%);stroke-opacity:0.2;stroke-miterlimit:10;" d="M 473 350 C 426.175781 423.292969 521.742188 417.515625 436.972656 436.972656 C 352.203125 456.429688 417.101562 528.332031 350 473 C 282.898438 417.667969 248.128906 522.664062 263.027344 436.972656 C 277.921875 351.285156 147.695312 385.710938 227 350 C 306.304688 314.289062 180.667969 290.984375 263.027344 263.027344 C 345.382812 235.066406 266.851562 201.484375 350 227 C 433.148438 252.515625 450.402344 177.09375 436.972656 263.027344 C 423.546875 348.957031 519.824219 276.707031 473 350 "/>
<path style="fill:none;stroke-width:1;stroke-linecap:butt;stroke-linejoin:round;stroke:rgb(0%,0%,0%);stroke-opacity:0.2;stroke-miterlimit:10;" d="M 471.5 350 C 424.609375 421.988281 519.675781 416.808594 435.914062 435.914062 C 352.152344 455.015625 416.199219 526.261719 350 471.5 C 283.800781 416.738281 248.820312 520.460938 264.085938 435.914062 C 279.351562 351.367188 150.617188 386.269531 228.5 350 C 306.382812 313.730469 182.484375 290.960938 264.085938 264.085938 C 345.6875 237.210938 267.925781 203.097656 350 228.5 C 432.074219 253.902344 449.128906 179.195312 435.914062 264.085938 C 422.699219 348.976562 518.390625 278.011719 471.5 350 "/>
<path style="fill:none;stroke-width:1;stroke-linecap:butt;stroke-linejoin:round;stroke:rgb(0%,0%,0%);stroke-opacity:0.2;stroke-miterlimit:10;" d="M 470 350 C 423.066406 420.691406 517.605469 416.101562 434.851562 434.851562 C 352.097656 453.605469 415.296875 524.1875 350 470 C 284.703125 415.8125 249.527344 518.253906 265.148438 434.851562 C 280.765625 351.449219 153.542969 386.800781 230 350 C 306.457031 313.199219 184.316406 290.957031 265.148438 265.148438 C 345.980469 239.335938 269 204.71875 350 230 C 431 255.28125 447.855469 181.296875 434.851562 265.148438 C 421.851562 349 516.933594 279.308594 470 350 "/>
<path style="fill:none;stroke-width:1;stroke-linecap:butt;stroke-linejoin:round;stroke:rgb(0%,0%,0%);stroke-opacity:0.2;stroke-miterlimit:10;" d="M 468.5 350 C 421.539062 419.398438 515.539062 415.386719 433.792969 433.792969 C 352.046875 452.199219 414.398438 522.109375 350 468.5 C 285.601562 414.890625 250.25 516.050781 266.207031 433.792969 C 282.167969 351.535156 156.46875 387.304688 231.5 350 C 306.53125 312.695312 186.15625 290.96875 266.207031 266.207031 C 346.257812 241.445312 270.074219 206.339844 350 231.5 C 429.925781 256.660156 446.582031 183.398438 433.792969 266.207031 C 421.003906 349.019531 515.460938 280.601562 468.5 350 "/>
<path style="fill:none;stroke-width:1;stroke-linecap:butt;stroke-linejoin:round;stroke:rgb(0%,0%,0%);stroke-opacity:0.2;stroke-miterlimit:10;" d="M 467 350 C 420.03125 418.105469 513.46875 414.671875 432.730469 432.730469 C 351.996094 450.792969 413.5 520.03125 350 467 C 286.5 413.96875 250.984375 513.84375 267.269531 432.730469 C 283.554688 351.617188 159.394531 387.773438 233 350 C 306.605469 312.226562 188.011719 290.996094 267.269531 267.269531 C 346.523438 243.542969 271.144531 207.96875 350 233 C 428.855469 258.03125 445.3125 185.5 432.730469 267.269531 C 420.152344 349.039062 513.96875 281.894531 467 350 "/>
<path style="fill:none;stroke-width:1;stroke-linecap:butt;stroke-linejoin:round;stroke:rgb(0%,0%,0%);stroke-opacity:0.2;stroke-miterlimit:10;" d="M 465.5 350 C 418.546875 416.824219 511.394531 413.953125 431.671875 431.671875 C 351.945312 449.390625 412.601562 517.949219 350 465.5 C 287.398438 413.050781 251.730469 511.636719 268.328125 431.671875 C 284.925781 351.703125 162.320312 388.214844 234.5 350 C 306.679688 311.785156 189.878906 291.039062 268.328125 268.328125 C 346.777344 245.617188 272.21875 209.601562 350 234.5 C 427.78125 259.398438 444.042969 187.601562 431.671875 268.328125 C 419.300781 349.058594 512.453125 283.175781 465.5 350 "/>
<path style="fill:none;stroke-width:1;stroke-linecap:butt;stroke-linejoin:round;stroke:rgb(0%,0%,0%);stroke-opacity:0.2;stroke-miterlimit:10;" d="M 464 350 C 417.074219 415.546875 509.324219 413.230469 430.609375 430.609375 C 351.894531 447.988281 411.710938 515.863281 350 464 C 288.289062 412.136719 252.496094 509.429688 269.390625 430.609375 C 286.285156 351.789062 165.246094 388.625 236 350 C 306.753906 311.375 191.757812 291.101562 269.390625 269.390625 C 347.019531 247.679688 273.285156 211.238281 350 236 C 426.714844 260.761719 442.773438 189.703125 430.609375 269.390625 C 418.445312 349.078125 510.925781 284.453125 464 350 "/>
<path style="fill:none;stroke-width:1;stroke-linecap:butt;stroke-linejoin:round;stroke:rgb(0%,0%,0%);stroke-opacity:0.2;stroke-miterlimit:10;" d="M 462.5 350 C 415.625 414.273438 507.25 412.507812 429.550781 429.550781 C 351.847656 446.59375 410.816406 513.777344 350 462.5 C 289.183594 411.222656 253.273438 507.222656 270.449219 429.550781 C 287.628906 351.875 168.167969 389.003906 237.5 350 C 306.832031 310.996094 193.648438 291.179688 270.449219 270.449219 C 347.253906 249.722656 274.355469 212.882812 350 237.5 C 425.644531 262.117188 441.507812 191.804688 429.550781 270.449219 C 417.59375 349.097656 509.375 285.726562 462.5 350 "/>
<path style="fill:none;stroke-width:1;stroke-linecap:butt;stroke-linejoin:round;stroke:rgb(0%,0%,0%);stroke-opacity:0.2;stroke-miterlimit:10;" d="M 461 350 C 414.195312 413.007812 505.179688 411.777344 428.488281 428.488281 C 351.800781 445.199219 409.925781 511.6875 350 461 C 290.074219 410.3125 254.0625 505.015625 271.511719 428.488281 C 288.957031 351.964844 171.089844 389.355469 239 350 C 306.910156 310.644531 195.550781 291.273438 271.511719 271.511719 C 347.472656 251.75 275.421875 214.53125 350 239 C 424.578125 263.46875 440.242188 193.90625 428.488281 271.511719 C 416.738281 349.113281 507.804688 286.992188 461 350 "/>
<path style="fill:none;stroke-width:1;stroke-linecap:butt;stroke-linejoin:round;stroke:rgb(0%,0%,0%);stroke-opacity:0.2;stroke-miterlimit:10;" d="M 459.5 350 C 412.78125 411.746094 503.105469 411.046875 427.429688 427.429688 C 351.753906 443.808594 409.039062 509.59375 350 459.5 C 290.960938 409.40625 254.871094 502.804688 272.570312 427.429688 C 290.273438 352.050781 174.007812 389.675781 240.5 350 C 306.992188 310.324219 197.464844 291.382812 272.570312 272.570312 C 347.679688 253.761719 276.488281 216.183594 350 240.5 C 423.511719 264.816406 438.976562 196.007812 427.429688 272.570312 C 415.878906 349.132812 506.21875 288.253906 459.5 350 "/>
<path style="fill:none;stroke-width:1;stroke-linecap:butt;stroke-linejoin:round;stroke:rgb(0%,0%,0%);stroke-opacity:0.2;stroke-miterlimit:10;" d="M 458 350 C 411.386719 410.492188 501.027344 410.316406 426.367188 426.367188 C 351.707031 442.417969 408.152344 507.5 350 458 C 291.847656 408.5 255.6875 500.597656 273.632812 426.367188 C 291.574219 352.136719 176.925781 389.964844 242 350 C 307.074219 310.035156 199.386719 291.511719 273.632812 273.632812 C 347.878906 255.753906 277.554688 217.84375 350 242 C 422.445312 266.15625 437.714844 198.113281 426.367188 273.632812 C 415.023438 349.152344 504.613281 289.507812 458 350 "/>
<path style="fill:none;stroke-width:1;stroke-linecap:butt;stroke-linejoin:round;stroke:rgb(0%,0%,0%);stroke-opacity:0.2;stroke-miterlimit:10;" d="M 456.5 350 C 410.011719 409.246094 498.953125 409.578125 425.308594 425.308594 C 351.660156 441.035156 407.269531 505.402344 350 456.5 C 292.730469 407.597656 256.523438 498.390625 274.691406 425.308594 C 292.863281 352.226562 179.835938 390.226562 243.5 350 C 307.164062 309.773438 201.320312 291.65625 274.691406 274.691406 C 348.0625 257.730469 278.617188 219.507812 350 243.5 C 421.382812 267.492188 436.449219 200.214844 425.308594 274.691406 C 414.164062 349.171875 502.988281 290.753906 456.5 350 "/>
<path style="fill:none;stroke-width:1;stroke-linecap:butt;stroke-linejoin:round;stroke:rgb(0%,0%,0%);stroke-opacity:0.2;stroke-miterlimit:10;" d="M 455 350 C 408.652344 408.003906 496.875 408.839844 424.246094 424.246094 C 351.617188 439.652344 406.386719 503.300781 350 455 C 293.613281 406.699219 257.371094 496.179688 275.753906 424.246094 C 294.136719 352.3125 182.746094 390.457031 245 350 C 307.253906 309.542969 203.265625 291.820312 275.753906 275.753906 C 348.242188 259.6875 279.679688 221.175781 350 245 C 420.320312 268.824219 435.191406 202.320312 424.246094 275.753906 C 413.300781 349.1875 501.347656 291.996094 455 350 "/>
<path style="fill:none;stroke-width:1;stroke-linecap:butt;stroke-linejoin:round;stroke:rgb(0%,0%,0%);stroke-opacity:0.2;stroke-miterlimit:10;" d="M 453.5 350 C 407.3125 406.773438 494.800781 408.101562 423.1875 423.1875 C 351.570312 438.269531 405.507812 501.199219 350 453.5 C 294.492188 405.800781 258.234375 493.972656 276.8125 423.1875 C 295.394531 352.398438 185.648438 390.660156 246.5 350 C 307.351562 309.339844 205.222656 292 276.8125 276.8125 C 348.40625 261.628906 280.742188 222.847656 350 246.5 C 419.257812 270.152344 433.929688 204.421875 423.1875 276.8125 C 412.441406 349.207031 499.6875 293.226562 453.5 350 "/>
<path style="fill:none;stroke-width:1;stroke-linecap:butt;stroke-linejoin:round;stroke:rgb(0%,0%,0%);stroke-opacity:0.2;stroke-miterlimit:10;" d="M 452 350 C 405.992188 405.546875 492.722656 407.355469 422.125 422.125 C 351.527344 436.894531 404.628906 499.089844 350 452 C 295.371094 404.910156 259.109375 491.765625 277.875 422.125 C 296.640625 352.484375 188.546875 390.832031 248 350 C 307.453125 309.167969 207.1875 292.199219 277.875 277.875 C 348.5625 263.550781 281.800781 224.527344 350 248 C 418.199219 271.472656 432.671875 206.527344 422.125 277.875 C 411.578125 349.226562 498.007812 294.453125 452 350 "/>
<path style="fill:none;stroke-width:1;stroke-linecap:butt;stroke-linejoin:round;stroke:rgb(0%,0%,0%);stroke-opacity:0.2;stroke-miterlimit:10;" d="M 450.5 350 C 404.691406 404.328125 490.644531 406.609375 421.0625 421.0625 C 351.484375 435.519531 403.753906 496.984375 350 450.5 C 296.246094 404.015625 260 489.558594 278.9375 421.0625 C 297.871094 352.570312 191.441406 390.976562 249.5 350 C 307.558594 309.023438 209.160156 292.414062 278.9375 278.9375 C 348.710938 265.457031 282.859375 226.210938 350 249.5 C 417.140625 272.789062 431.414062 208.628906 421.0625 278.9375 C 410.714844 349.242188 496.308594 295.671875 450.5 350 "/>
<path style="fill:none;stroke-width:1;stroke-linecap:butt;stroke-linejoin:round;stroke:rgb(0%,0%,0%);stroke-opacity:0.2;stroke-miterlimit:10;" d="M 449 350 C 403.402344 403.117188 488.5625 405.859375 420.003906 420.003906 C 351.445312 434.148438 402.878906 494.871094 350 449 C 297.121094 403.128906 260.90625 487.355469 279.996094 420.003906 C 299.085938 352.652344 194.328125 391.09375 251 350 C 307.671875 308.90625 211.144531 292.648438 279.996094 279.996094 C 348.847656 267.34375 283.917969 227.898438 350 251 C 416.082031 274.101562 430.160156 210.734375 420.003906 279.996094 C 409.847656 349.257812 494.597656 296.882812 449 350 "/>
<path style="fill:none;stroke-width:1;stroke-linecap:butt;stroke-linejoin:round;stroke:rgb(0%,0%,0%);stroke-opacity:0.2;stroke-miterlimit:10;" d="M 447.5 350 C 402.136719 401.914062 486.484375 405.105469 418.941406 418.941406 C 351.402344 432.78125 402.007812 492.757812 350 447.5 C 297.992188 402.242188 261.824219 485.148438 281.058594 418.941406 C 300.289062 352.738281 197.207031 391.179688 252.5 350 C 307.792969 308.820312 213.140625 292.902344 281.058594 281.058594 C 348.976562 269.214844 284.972656 229.589844 350 252.5 C 415.027344 275.410156 428.90625 212.835938 418.941406 281.058594 C 408.980469 349.277344 492.863281 298.085938 447.5 350 "/>
<path style="fill:none;stroke-width:1;stroke-linecap:butt;stroke-linejoin:round;stroke:rgb(0%,0%,0%);stroke-opacity:0.2;stroke-miterlimit:10;" d="M 446 350 C 400.886719 400.722656 484.402344 404.351562 417.882812 417.882812 C 351.363281 431.414062 401.136719 490.640625 350 446 C 298.863281 401.359375 262.757812 482.945312 282.117188 417.882812 C 301.476562 352.820312 200.078125 391.238281 254 350 C 307.921875 308.761719 215.140625 293.171875 282.117188 282.117188 C 349.09375 271.066406 286.03125 231.289062 350 254 C 413.96875 276.710938 427.652344 214.941406 417.882812 282.117188 C 408.113281 349.292969 491.113281 299.277344 446 350 "/>
<path style="fill:none;stroke-width:1;stroke-linecap:butt;stroke-linejoin:round;stroke:rgb(0%,0%,0%);stroke-opacity:0.2;stroke-miterlimit:10;" d="M 444.5 350 C 399.652344 399.535156 482.320312 403.589844 416.820312 416.820312 C 351.324219 430.050781 400.269531 488.523438 350 444.5 C 299.730469 400.476562 263.703125 480.742188 283.179688 416.820312 C 302.652344 352.902344 202.945312 391.265625 255.5 350 C 308.054688 308.734375 217.152344 293.457031 283.179688 283.179688 C 349.203125 272.898438 287.082031 232.992188 350 255.5 C 412.917969 278.007812 426.398438 217.046875 416.820312 283.179688 C 407.246094 349.308594 489.347656 300.464844 444.5 350 "/>
<path style="fill:none;stroke-width:1;stroke-linecap:butt;stroke-linejoin:round;stroke:rgb(0%,0%,0%);stroke-opacity:0.2;stroke-miterlimit:10;" d="M 443 350 C 398.4375 398.359375 480.238281 402.828125 415.761719 415.761719 C 351.285156 428.691406 399.40625 486.402344 350 443 C 300.59375 399.597656 264.664062 478.542969 284.238281 415.761719 C 303.8125 352.980469 205.800781 391.269531 257 350 C 308.199219 308.730469 219.171875 293.765625 284.238281 284.238281 C 349.304688 274.714844 288.136719 234.699219 350 257 C 411.863281 279.300781 425.148438 219.152344 415.761719 284.238281 C 406.375 349.328125 487.5625 301.640625 443 350 "/>
<path style="fill:none;stroke-width:1;stroke-linecap:butt;stroke-linejoin:round;stroke:rgb(0%,0%,0%);stroke-opacity:0.2;stroke-miterlimit:10;" d="M 441.5 350 C 397.238281 397.191406 478.15625 402.066406 414.699219 414.699219 C 351.246094 427.335938 398.542969 484.277344 350 441.5 C 301.457031 398.722656 265.640625 476.339844 285.300781 414.699219 C 304.957031 353.058594 208.648438 391.242188 258.5 350 C 308.351562 308.757812 221.199219 294.089844 285.300781 285.300781 C 349.398438 276.511719 289.1875 236.414062 350 258.5 C 410.8125 280.585938 423.898438 221.257812 414.699219 285.300781 C 405.503906 349.34375 485.761719 302.808594 441.5 350 "/>
<path style="fill:none;stroke-width:1;stroke-linecap:butt;stroke-linejoin:round;stroke:rgb(0%,0%,0%);stroke-opacity:0.2;stroke-miterlimit:10;" d="M 440 350 C 396.058594 396.03125 476.070312 401.296875 413.640625 413.640625 C 351.207031 425.980469 397.679688 482.148438 350 440 C 302.320312 397.851562 266.628906 474.144531 286.359375 413.640625 C 306.089844 353.136719 211.488281 391.191406 260 350 C 308.511719 308.808594 223.234375 294.433594 286.359375 286.359375 C 349.484375 278.289062 290.234375 238.132812 350 260 C 409.765625 281.867188 422.648438 223.363281 413.640625 286.359375 C 404.628906 349.359375 483.941406 303.96875 440 350 "/>
<path style="fill:none;stroke-width:1;stroke-linecap:butt;stroke-linejoin:round;stroke:rgb(0%,0%,0%);stroke-opacity:0.2;stroke-miterlimit:10;" d="M 438.5 350 C 394.894531 394.882812 473.988281 400.527344 412.578125 412.578125 C 351.171875 424.628906 396.820312 480.019531 350 438.5 C 303.179688 396.980469 267.632812 471.945312 287.421875 412.578125 C 307.210938 353.210938 214.316406 391.109375 261.5 350 C 308.683594 308.890625 225.277344 294.792969 287.421875 287.421875 C 349.5625 280.050781 291.285156 239.855469 350 261.5 C 408.714844 283.144531 421.402344 225.46875 412.578125 287.421875 C 403.753906 349.375 482.105469 305.117188 438.5 350 "/>
<path style="fill:none;stroke-width:1;stroke-linecap:butt;stroke-linejoin:round;stroke:rgb(0%,0%,0%);stroke-opacity:0.2;stroke-miterlimit:10;" d="M 437 350 C 393.746094 393.742188 471.902344 399.753906 411.519531 411.519531 C 351.136719 423.28125 395.960938 477.890625 350 437 C 304.039062 396.109375 268.648438 469.753906 288.480469 411.519531 C 308.3125 353.285156 217.136719 391 263 350 C 308.863281 309 227.328125 295.171875 288.480469 288.480469 C 349.636719 281.789062 292.332031 241.582031 350 263 C 407.667969 284.417969 420.15625 227.574219 411.519531 288.480469 C 402.878906 349.390625 480.253906 306.257812 437 350 "/>
<path style="fill:none;stroke-width:1;stroke-linecap:butt;stroke-linejoin:round;stroke:rgb(0%,0%,0%);stroke-opacity:0.2;stroke-miterlimit:10;" d="M 435.5 350 C 392.613281 392.613281 469.816406 398.980469 410.457031 410.457031 C 351.097656 421.933594 395.109375 475.753906 350 435.5 C 304.890625 395.246094 269.679688 467.558594 289.542969 410.457031 C 309.40625 353.355469 219.945312 390.867188 264.5 350 C 309.054688 309.132812 229.386719 295.570312 289.542969 289.542969 C 349.699219 283.511719 293.375 243.316406 350 264.5 C 406.625 285.683594 418.910156 229.679688 410.457031 289.542969 C 402.003906 349.40625 478.386719 307.386719 435.5 350 "/>
<path style="fill:none;stroke-width:1;stroke-linecap:butt;stroke-linejoin:round;stroke:rgb(0%,0%,0%);stroke-opacity:0.2;stroke-miterlimit:10;" d="M 434 350 C 391.5 391.492188 467.730469 398.203125 409.398438 409.398438 C 351.066406 420.59375 394.253906 473.617188 350 434 C 305.746094 394.382812 270.722656 465.367188 290.601562 409.398438 C 310.480469 353.425781 222.742188 390.703125 266 350 C 309.257812 309.296875 231.449219 295.988281 290.601562 290.601562 C 349.753906 285.21875 294.417969 245.050781 350 266 C 405.582031 286.949219 417.667969 231.785156 409.398438 290.601562 C 401.125 349.421875 476.5 308.507812 434 350 "/>
<path style="fill:none;stroke-width:1;stroke-linecap:butt;stroke-linejoin:round;stroke:rgb(0%,0%,0%);stroke-opacity:0.2;stroke-miterlimit:10;" d="M 432.5 350 C 390.402344 390.382812 465.640625 397.421875 408.335938 408.335938 C 351.03125 419.253906 393.402344 471.476562 350 432.5 C 306.597656 393.523438 271.78125 463.179688 291.664062 408.335938 C 311.542969 353.492188 225.53125 390.515625 267.5 350 C 309.46875 309.484375 233.523438 296.425781 291.664062 291.664062 C 349.804688 286.902344 295.460938 246.796875 350 267.5 C 404.539062 288.203125 416.425781 233.890625 408.335938 291.664062 C 400.246094 349.4375 474.597656 309.617188 432.5 350 "/>
<path style="fill:none;stroke-width:1;stroke-linecap:butt;stroke-linejoin:round;stroke:rgb(0%,0%,0%);stroke-opacity:0.2;stroke-miterlimit:10;" d="M 431 350 C 389.320312 389.285156 463.554688 396.636719 407.277344 407.277344 C 350.996094 417.914062 392.554688 469.335938 350 431 C 307.445312 392.664062 272.855469 460.996094 292.722656 407.277344 C 312.59375 353.558594 228.304688 390.304688 269 350 C 309.695312 309.695312 235.597656 296.878906 292.722656 292.722656 C 349.847656 288.570312 296.503906 248.542969 350 269 C 403.496094 289.457031 415.183594 235.996094 407.277344 292.722656 C 399.367188 349.453125 472.679688 310.714844 431 350 "/>
<path style="fill:none;stroke-width:1;stroke-linecap:butt;stroke-linejoin:round;stroke:rgb(0%,0%,0%);stroke-opacity:0.2;stroke-miterlimit:10;" d="M 429.5 350 C 388.253906 388.195312 461.464844 395.847656 406.214844 406.214844 C 350.964844 416.582031 391.707031 467.191406 350 429.5 C 308.292969 391.808594 273.941406 458.8125 293.785156 406.214844 C 313.628906 353.617188 231.066406 390.0625 270.5 350 C 309.933594 309.9375 237.683594 297.351562 293.785156 293.785156 C 349.886719 290.21875 297.542969 250.296875 350 270.5 C 402.457031 290.703125 413.945312 238.105469 406.214844 293.785156 C 398.484375 349.464844 470.746094 311.804688 429.5 350 "/>
<path style="fill:none;stroke-width:1;stroke-linecap:butt;stroke-linejoin:round;stroke:rgb(0%,0%,0%);stroke-opacity:0.2;stroke-miterlimit:10;" d="M 428 350 C 387.203125 387.117188 459.375 395.058594 405.15625 405.15625 C 350.933594 415.25 390.863281 465.042969 350 428 C 309.136719 390.957031 275.039062 456.628906 294.84375 405.15625 C 314.648438 353.679688 233.816406 389.796875 272 350 C 310.183594 310.203125 239.773438 297.84375 294.84375 294.84375 C 349.917969 291.847656 298.578125 252.050781 350 272 C 401.421875 291.949219 412.707031 240.210938 405.15625 294.84375 C 397.601562 349.480469 468.796875 312.882812 428 350 "/>
<path style="fill:none;stroke-width:1;stroke-linecap:butt;stroke-linejoin:round;stroke:rgb(0%,0%,0%);stroke-opacity:0.2;stroke-miterlimit:10;" d="M 426.5 350 C 386.167969 386.050781 457.285156 394.265625 404.09375 404.09375 C 350.898438 413.921875 390.019531 462.894531 350 426.5 C 309.980469 390.105469 276.15625 454.453125 295.90625 404.09375 C 315.660156 353.734375 236.550781 389.507812 273.5 350 C 310.449219 310.492188 241.867188 298.355469 295.90625 295.90625 C 349.945312 293.457031 299.617188 253.8125 350 273.5 C 400.382812 293.1875 411.46875 242.316406 404.09375 295.90625 C 396.71875 349.496094 466.832031 313.949219 426.5 350 "/>
<path style="fill:none;stroke-width:1;stroke-linecap:butt;stroke-linejoin:round;stroke:rgb(0%,0%,0%);stroke-opacity:0.2;stroke-miterlimit:10;" d="M 425 350 C 385.152344 384.992188 455.195312 393.46875 403.03125 403.03125 C 350.871094 412.597656 389.179688 460.742188 350 425 C 310.820312 389.257812 277.28125 452.277344 296.96875 403.03125 C 316.652344 353.789062 239.273438 389.191406 275 350 C 310.726562 310.808594 243.96875 298.886719 296.96875 296.96875 C 349.964844 295.046875 300.648438 255.582031 350 275 C 399.351562 294.417969 410.230469 244.425781 403.03125 296.96875 C 395.835938 349.507812 464.847656 315.007812 425 350 "/>
<path style="fill:none;stroke-width:1;stroke-linecap:butt;stroke-linejoin:round;stroke:rgb(0%,0%,0%);stroke-opacity:0.2;stroke-miterlimit:10;" d="M 423.5 350 C 384.148438 383.949219 453.105469 392.671875 401.972656 401.972656 C 350.839844 411.273438 388.339844 458.585938 350 423.5 C 311.660156 388.414062 278.421875 450.105469 298.027344 401.972656 C 317.632812 353.839844 241.980469 388.851562 276.5 350 C 311.019531 311.148438 246.074219 299.4375 298.027344 298.027344 C 349.980469 296.617188 301.683594 257.351562 350 276.5 C 398.316406 295.648438 408.996094 246.53125 401.972656 298.027344 C 394.949219 349.523438 462.851562 316.050781 423.5 350 "/>
<path style="fill:none;stroke-width:1;stroke-linecap:butt;stroke-linejoin:round;stroke:rgb(0%,0%,0%);stroke-opacity:0.2;stroke-miterlimit:10;" d="M 422 350 C 383.160156 382.914062 451.015625 391.871094 400.910156 400.910156 C 350.808594 409.953125 387.503906 456.429688 350 422 C 312.496094 387.570312 279.578125 447.9375 299.089844 400.910156 C 318.601562 353.886719 244.671875 388.488281 278 350 C 311.328125 311.511719 248.183594 300.007812 299.089844 299.089844 C 349.992188 298.171875 302.714844 259.128906 350 278 C 397.285156 296.871094 407.761719 248.640625 400.910156 299.089844 C 394.058594 349.535156 460.839844 317.085938 422 350 "/>
<path style="fill:none;stroke-width:1;stroke-linecap:butt;stroke-linejoin:round;stroke:rgb(0%,0%,0%);stroke-opacity:0.2;stroke-miterlimit:10;" d="M 420.5 350 C 382.1875 381.894531 448.921875 391.066406 399.851562 399.851562 C 350.78125 408.636719 386.671875 454.269531 350 420.5 C 313.328125 386.730469 280.746094 445.769531 300.148438 399.851562 C 319.554688 353.929688 247.351562 388.101562 279.5 350 C 311.648438 311.898438 250.300781 300.59375 300.148438 300.148438 C 349.996094 299.703125 303.746094 260.910156 350 279.5 C 396.253906 298.089844 406.53125 250.746094 399.851562 300.148438 C 393.171875 349.550781 458.8125 318.105469 420.5 350 "/>
<path style="fill:none;stroke-width:1;stroke-linecap:butt;stroke-linejoin:round;stroke:rgb(0%,0%,0%);stroke-opacity:0.2;stroke-miterlimit:10;" d="M 419 350 C 381.226562 380.882812 446.828125 390.257812 398.789062 398.789062 C 350.75 407.324219 385.839844 452.105469 350 419 C 314.160156 385.894531 281.925781 443.609375 301.210938 398.789062 C 320.492188 353.972656 250.015625 387.6875 281 350 C 311.984375 312.3125 252.417969 301.203125 301.210938 301.210938 C 350 301.21875 304.773438 262.699219 350 281 C 395.226562 299.300781 405.300781 252.855469 398.789062 301.210938 C 392.28125 349.5625 456.773438 319.117188 419 350 "/>
<path style="fill:none;stroke-width:1;stroke-linecap:butt;stroke-linejoin:round;stroke:rgb(0%,0%,0%);stroke-opacity:0.2;stroke-miterlimit:10;" d="M 417.5 350 C 380.285156 379.886719 444.734375 389.449219 397.730469 397.730469 C 350.722656 406.011719 385.007812 449.941406 350 417.5 C 314.992188 385.058594 283.121094 441.449219 302.269531 397.730469 C 321.417969 354.007812 252.660156 387.253906 282.5 350 C 312.339844 312.746094 254.542969 301.828125 302.269531 302.269531 C 349.996094 302.710938 305.800781 264.488281 350 282.5 C 394.199219 300.511719 404.070312 254.964844 397.730469 302.269531 C 391.390625 349.578125 454.714844 320.113281 417.5 350 "/>
<path style="fill:none;stroke-width:1;stroke-linecap:butt;stroke-linejoin:round;stroke:rgb(0%,0%,0%);stroke-opacity:0.2;stroke-miterlimit:10;" d="M 416 350 C 379.355469 378.898438 442.640625 388.636719 396.667969 396.667969 C 350.695312 404.703125 384.183594 447.773438 350 416 C 315.816406 384.226562 284.328125 439.292969 303.332031 396.667969 C 322.332031 354.042969 255.292969 386.792969 284 350 C 312.707031 313.207031 256.667969 302.476562 303.332031 303.332031 C 349.992188 304.1875 306.824219 266.285156 350 284 C 393.175781 301.714844 402.839844 257.070312 396.667969 303.332031 C 390.496094 349.589844 452.644531 321.101562 416 350 "/>
<path style="fill:none;stroke-width:1;stroke-linecap:butt;stroke-linejoin:round;stroke:rgb(0%,0%,0%);stroke-opacity:0.2;stroke-miterlimit:10;" d="M 414.5 350 C 378.441406 377.925781 440.546875 387.820312 395.609375 395.609375 C 350.671875 403.398438 383.355469 445.605469 350 414.5 C 316.644531 383.394531 285.550781 437.144531 304.390625 395.609375 C 323.230469 354.074219 257.90625 386.3125 285.5 350 C 313.09375 313.6875 258.800781 303.140625 304.390625 304.390625 C 349.984375 305.644531 307.847656 268.085938 350 285.5 C 392.152344 302.914062 401.613281 259.179688 395.609375 304.390625 C 389.605469 349.601562 450.558594 322.074219 414.5 350 "/>
<path style="fill:none;stroke-width:1;stroke-linecap:butt;stroke-linejoin:round;stroke:rgb(0%,0%,0%);stroke-opacity:0.2;stroke-miterlimit:10;" d="M 413 350 C 377.542969 376.964844 438.453125 387 394.546875 394.546875 C 350.644531 402.09375 382.53125 443.433594 350 413 C 317.46875 382.566406 286.789062 434.996094 305.453125 394.546875 C 324.117188 354.097656 260.503906 385.808594 287 350 C 313.496094 314.191406 260.933594 303.824219 305.453125 305.453125 C 349.96875 307.078125 308.867188 269.890625 350 287 C 391.132812 304.109375 400.386719 261.289062 394.546875 305.453125 C 388.707031 349.617188 448.457031 323.035156 413 350 "/>
<path style="fill:none;stroke-width:1;stroke-linecap:butt;stroke-linejoin:round;stroke:rgb(0%,0%,0%);stroke-opacity:0.2;stroke-miterlimit:10;" d="M 411.5 350 C 376.65625 376.019531 436.355469 386.179688 393.488281 393.488281 C 350.617188 400.796875 381.710938 441.257812 350 411.5 C 318.289062 381.742188 288.035156 432.855469 306.511719 393.488281 C 324.988281 354.121094 263.082031 385.285156 288.5 350 C 313.917969 314.714844 263.070312 304.527344 306.511719 306.511719 C 349.953125 308.496094 309.886719 271.703125 350 288.5 C 390.113281 305.296875 399.160156 263.398438 393.488281 306.511719 C 387.8125 349.628906 446.34375 323.980469 411.5 350 "/>
<path style="fill:none;stroke-width:1;stroke-linecap:butt;stroke-linejoin:round;stroke:rgb(0%,0%,0%);stroke-opacity:0.2;stroke-miterlimit:10;" d="M 410 350 C 375.78125 375.082031 434.257812 385.355469 392.425781 392.425781 C 350.59375 399.5 380.894531 439.078125 350 410 C 319.105469 380.921875 289.296875 430.714844 307.574219 392.425781 C 325.847656 354.136719 265.644531 384.738281 290 350 C 314.355469 315.261719 265.210938 305.253906 307.574219 307.574219 C 349.9375 309.894531 310.90625 273.519531 350 290 C 389.09375 306.480469 397.9375 265.507812 392.425781 307.574219 C 386.914062 349.640625 444.21875 324.917969 410 350 "/>
<path style="fill:none;stroke-width:1;stroke-linecap:butt;stroke-linejoin:round;stroke:rgb(0%,0%,0%);stroke-opacity:0.2;stroke-miterlimit:10;" d="M 408.5 350 C 374.925781 374.160156 432.164062 384.527344 391.367188 391.367188 C 350.570312 398.203125 380.078125 436.898438 350 408.5 C 319.921875 380.101562 290.574219 428.582031 308.632812 391.367188 C 326.695312 354.152344 268.1875 384.171875 291.5 350 C 314.8125 315.828125 267.351562 305.996094 308.632812 308.632812 C 349.914062 311.273438 311.921875 275.339844 350 291.5 C 388.078125 307.660156 396.714844 267.617188 391.367188 308.632812 C 386.015625 349.652344 442.074219 325.839844 408.5 350 "/>
<path style="fill:none;stroke-width:1;stroke-linecap:butt;stroke-linejoin:round;stroke:rgb(0%,0%,0%);stroke-opacity:0.2;stroke-miterlimit:10;" d="M 407 350 C 374.078125 373.253906 430.066406 383.695312 390.304688 390.304688 C 350.546875 396.914062 379.261719 434.71875 350 407 C 320.738281 379.28125 291.859375 426.449219 309.695312 390.304688 C 327.527344 354.160156 270.710938 383.582031 293 350 C 315.289062 316.417969 269.496094 306.757812 309.695312 309.695312 C 349.894531 312.632812 312.9375 277.164062 350 293 C 387.0625 308.835938 395.492188 269.726562 390.304688 309.695312 C 385.117188 349.664062 439.921875 326.746094 407 350 "/>
<path style="fill:none;stroke-width:1;stroke-linecap:butt;stroke-linejoin:round;stroke:rgb(0%,0%,0%);stroke-opacity:0.2;stroke-miterlimit:10;" d="M 405.5 350 C 373.246094 372.359375 427.964844 382.863281 389.246094 389.246094 C 350.523438 395.625 378.449219 432.53125 350 405.5 C 321.550781 378.46875 293.164062 424.324219 310.753906 389.246094 C 328.347656 354.164062 273.214844 382.972656 294.5 350 C 315.785156 317.027344 271.644531 307.539062 310.753906 310.753906 C 349.867188 313.96875 313.949219 278.992188 350 294.5 C 386.050781 310.007812 394.273438 271.835938 389.246094 310.753906 C 384.214844 349.675781 437.753906 327.640625 405.5 350 "/>
<path style="fill:none;stroke-width:1;stroke-linecap:butt;stroke-linejoin:round;stroke:rgb(0%,0%,0%);stroke-opacity:0.2;stroke-miterlimit:10;" d="M 404 350 C 372.429688 371.476562 425.867188 382.027344 388.183594 388.183594 C 350.5 394.339844 377.640625 430.34375 350 404 C 322.359375 377.65625 294.476562 422.203125 311.816406 388.183594 C 329.15625 354.164062 275.703125 382.34375 296 350 C 316.296875 317.65625 273.789062 308.34375 311.816406 311.816406 C 349.839844 315.289062 314.960938 280.828125 350 296 C 385.039062 311.171875 393.054688 273.945312 388.183594 311.816406 C 383.3125 349.6875 435.570312 328.523438 404 350 "/>
<path style="fill:none;stroke-width:1;stroke-linecap:butt;stroke-linejoin:round;stroke:rgb(0%,0%,0%);stroke-opacity:0.2;stroke-miterlimit:10;" d="M 402.5 350 C 371.625 370.609375 423.769531 381.1875 387.125 387.125 C 350.476562 393.058594 376.832031 428.15625 350 402.5 C 323.167969 376.84375 295.804688 420.085938 312.875 387.125 C 329.949219 354.160156 278.167969 381.691406 297.5 350 C 316.832031 318.308594 275.941406 309.164062 312.875 312.875 C 349.8125 316.589844 315.96875 282.667969 350 297.5 C 384.03125 312.332031 391.835938 276.054688 387.125 312.875 C 382.410156 349.699219 433.375 329.390625 402.5 350 "/>
<path style="fill:none;stroke-width:1;stroke-linecap:butt;stroke-linejoin:round;stroke:rgb(0%,0%,0%);stroke-opacity:0.2;stroke-miterlimit:10;" d="M 401 350 C 370.832031 369.753906 421.667969 380.347656 386.0625 386.0625 C 350.457031 391.777344 376.027344 425.960938 350 401 C 323.972656 376.039062 297.144531 417.976562 313.9375 386.0625 C 330.730469 354.148438 280.617188 381.023438 299 350 C 317.382812 318.976562 278.089844 310.003906 313.9375 313.9375 C 349.785156 317.871094 316.976562 284.511719 350 299 C 383.023438 313.488281 390.621094 278.164062 386.0625 313.9375 C 381.503906 349.710938 431.167969 330.246094 401 350 "/>
<path style="fill:none;stroke-width:1;stroke-linecap:butt;stroke-linejoin:round;stroke:rgb(0%,0%,0%);stroke-opacity:0.2;stroke-miterlimit:10;" d="M 399.5 350 C 370.050781 368.917969 419.570312 379.503906 385 385 C 350.433594 390.5 375.222656 423.769531 350 399.5 C 324.777344 375.230469 298.5 415.871094 315 385 C 331.5 354.132812 283.042969 380.335938 300.5 350 C 317.957031 319.664062 280.242188 310.863281 315 315 C 349.753906 319.132812 317.980469 286.359375 350 300.5 C 382.019531 314.640625 389.40625 280.273438 385 315 C 380.597656 349.722656 428.949219 331.082031 399.5 350 "/>
<path style="fill:none;stroke-width:1;stroke-linecap:butt;stroke-linejoin:round;stroke:rgb(0%,0%,0%);stroke-opacity:0.2;stroke-miterlimit:10;" d="M 398 350 C 369.28125 368.089844 417.46875 378.65625 383.941406 383.941406 C 350.414062 389.226562 374.421875 421.570312 350 398 C 325.578125 374.429688 299.863281 413.769531 316.058594 383.941406 C 332.253906 354.113281 285.449219 379.632812 302 350 C 318.550781 320.367188 282.394531 311.742188 316.058594 316.058594 C 349.722656 320.375 318.984375 288.214844 350 302 C 381.015625 315.785156 388.191406 282.386719 383.941406 316.058594 C 379.691406 349.734375 426.71875 331.910156 398 350 "/>
<path style="fill:none;stroke-width:1;stroke-linecap:butt;stroke-linejoin:round;stroke:rgb(0%,0%,0%);stroke-opacity:0.2;stroke-miterlimit:10;" d="M 396.5 350 C 368.527344 367.28125 415.367188 377.804688 382.878906 382.878906 C 350.394531 387.957031 373.621094 419.371094 350 396.5 C 326.378906 373.628906 301.242188 411.675781 317.121094 382.878906 C 332.996094 354.085938 287.835938 378.910156 303.5 350 C 319.164062 321.089844 284.546875 312.644531 317.121094 317.121094 C 349.695312 321.597656 319.988281 290.070312 350 303.5 C 380.011719 316.929688 386.980469 284.496094 382.878906 317.121094 C 378.78125 349.742188 424.472656 332.71875 396.5 350 "/>
<path style="fill:none;stroke-width:1;stroke-linecap:butt;stroke-linejoin:round;stroke:rgb(0%,0%,0%);stroke-opacity:0.2;stroke-miterlimit:10;" d="M 395 350 C 367.78125 366.484375 413.265625 376.949219 381.820312 381.820312 C 350.375 386.6875 372.828125 417.167969 350 395 C 327.171875 372.832031 302.636719 409.585938 318.179688 381.820312 C 333.726562 354.054688 290.199219 378.167969 305 350 C 319.800781 321.832031 286.699219 313.5625 318.179688 318.179688 C 349.664062 322.800781 320.984375 291.933594 350 305 C 379.015625 318.066406 385.769531 286.605469 381.820312 318.179688 C 377.871094 349.753906 422.21875 333.515625 395 350 "/>
<path style="fill:none;stroke-width:1;stroke-linecap:butt;stroke-linejoin:round;stroke:rgb(0%,0%,0%);stroke-opacity:0.2;stroke-miterlimit:10;" d="M 393.5 350 C 367.050781 365.703125 411.164062 376.09375 380.757812 380.757812 C 350.355469 385.425781 372.03125 414.964844 350 393.5 C 327.96875 372.035156 304.039062 407.5 319.242188 380.757812 C 334.441406 354.019531 292.539062 377.410156 306.5 350 C 320.460938 322.589844 288.847656 314.5 319.242188 319.242188 C 349.632812 323.984375 321.984375 293.804688 350 306.5 C 378.015625 319.195312 384.558594 288.71875 380.757812 319.242188 C 376.960938 349.765625 419.949219 334.296875 393.5 350 "/>
<path style="fill:none;stroke-width:1;stroke-linecap:butt;stroke-linejoin:round;stroke:rgb(0%,0%,0%);stroke-opacity:0.2;stroke-miterlimit:10;" d="M 392 350 C 366.328125 364.933594 409.058594 375.234375 379.699219 379.699219 C 350.335938 384.160156 371.238281 412.757812 350 392 C 328.761719 371.242188 305.457031 405.421875 320.300781 379.699219 C 335.144531 353.976562 294.859375 376.632812 308 350 C 321.140625 323.367188 291 315.457031 320.300781 320.300781 C 349.601562 325.144531 322.980469 295.675781 350 308 C 377.019531 320.324219 383.347656 290.828125 379.699219 320.300781 C 376.046875 349.773438 417.671875 335.066406 392 350 "/>
<path style="fill:none;stroke-width:1;stroke-linecap:butt;stroke-linejoin:round;stroke:rgb(0%,0%,0%);stroke-opacity:0.2;stroke-miterlimit:10;" d="M 390.5 350 C 365.621094 364.183594 406.957031 374.375 378.636719 378.636719 C 350.320312 382.902344 370.449219 410.546875 350 390.5 C 329.550781 370.453125 306.886719 403.347656 321.363281 378.636719 C 335.835938 353.925781 297.160156 375.84375 309.5 350 C 321.839844 324.15625 293.152344 316.433594 321.363281 321.363281 C 349.574219 326.289062 323.972656 297.554688 350 309.5 C 376.027344 321.445312 382.140625 292.9375 378.636719 321.363281 C 375.136719 349.785156 415.378906 335.816406 390.5 350 "/>
<path style="fill:none;stroke-width:1;stroke-linecap:butt;stroke-linejoin:round;stroke:rgb(0%,0%,0%);stroke-opacity:0.2;stroke-miterlimit:10;" d="M 389 350 C 364.921875 363.445312 404.851562 373.507812 377.578125 377.578125 C 350.300781 381.644531 369.664062 408.335938 350 389 C 330.335938 369.664062 308.328125 401.28125 322.421875 377.578125 C 336.515625 353.875 299.433594 375.035156 311 350 C 322.566406 324.964844 295.300781 317.429688 322.421875 322.421875 C 349.542969 327.414062 324.964844 299.433594 350 311 C 375.035156 322.566406 380.933594 295.050781 377.578125 322.421875 C 374.21875 349.792969 413.078125 336.554688 389 350 "/>
<path style="fill:none;stroke-width:1;stroke-linecap:butt;stroke-linejoin:round;stroke:rgb(0%,0%,0%);stroke-opacity:0.2;stroke-miterlimit:10;" d="M 387.5 350 C 364.234375 362.726562 402.75 372.640625 376.515625 376.515625 C 350.285156 380.394531 368.878906 406.121094 350 387.5 C 331.121094 368.878906 309.785156 399.21875 323.484375 376.515625 C 337.183594 353.8125 301.6875 374.210938 312.5 350 C 323.3125 325.789062 297.449219 318.445312 323.484375 323.484375 C 349.515625 328.519531 325.953125 301.320312 350 312.5 C 374.046875 323.679688 379.730469 297.164062 376.515625 323.484375 C 373.304688 349.804688 410.765625 337.273438 387.5 350 "/>
<path style="fill:none;stroke-width:1;stroke-linecap:butt;stroke-linejoin:round;stroke:rgb(0%,0%,0%);stroke-opacity:0.2;stroke-miterlimit:10;" d="M 386 350 C 363.558594 362.019531 400.644531 371.769531 375.457031 375.457031 C 350.269531 379.140625 368.09375 403.90625 350 386 C 331.90625 368.09375 311.25 397.164062 324.542969 375.457031 C 337.835938 353.746094 303.917969 373.375 314 350 C 324.082031 326.625 299.597656 319.480469 324.542969 324.542969 C 349.492188 329.609375 326.941406 303.214844 350 314 C 373.058594 324.785156 378.523438 299.273438 375.457031 324.542969 C 372.386719 349.8125 408.441406 337.980469 386 350 "/>
<path style="fill:none;stroke-width:1;stroke-linecap:butt;stroke-linejoin:round;stroke:rgb(0%,0%,0%);stroke-opacity:0.2;stroke-miterlimit:10;" d="M 384.5 350 C 362.894531 361.328125 398.539062 370.894531 374.394531 374.394531 C 350.253906 377.894531 367.3125 401.6875 350 384.5 C 332.6875 367.3125 312.730469 395.117188 325.605469 374.394531 C 338.480469 353.671875 306.125 372.523438 315.5 350 C 324.875 327.476562 301.742188 320.535156 325.605469 325.605469 C 349.46875 330.675781 327.929688 305.109375 350 315.5 C 372.070312 325.890625 377.320312 301.386719 374.394531 325.605469 C 371.46875 349.824219 406.105469 338.671875 384.5 350 "/>
<path style="fill:none;stroke-width:1;stroke-linecap:butt;stroke-linejoin:round;stroke:rgb(0%,0%,0%);stroke-opacity:0.2;stroke-miterlimit:10;" d="M 383 350 C 362.238281 360.652344 396.433594 370.019531 373.335938 373.335938 C 350.238281 376.648438 366.535156 399.464844 350 383 C 333.464844 366.535156 314.222656 393.074219 326.664062 373.335938 C 339.109375 353.59375 308.308594 371.65625 317 350 C 325.691406 328.34375 303.886719 321.609375 326.664062 326.664062 C 349.445312 331.722656 328.910156 307.011719 350 317 C 371.089844 326.988281 376.121094 303.496094 373.335938 326.664062 C 370.546875 349.832031 403.761719 339.347656 383 350 "/>
<path style="fill:none;stroke-width:1;stroke-linecap:butt;stroke-linejoin:round;stroke:rgb(0%,0%,0%);stroke-opacity:0.2;stroke-miterlimit:10;" d="M 381.5 350 C 361.59375 359.996094 394.324219 369.140625 372.273438 372.273438 C 350.222656 375.40625 365.757812 397.242188 350 381.5 C 334.242188 365.757812 315.726562 391.039062 327.726562 372.273438 C 339.726562 353.507812 310.46875 370.773438 318.5 350 C 326.53125 329.226562 306.027344 322.703125 327.726562 327.726562 C 349.425781 332.75 329.894531 308.917969 350 318.5 C 370.105469 328.082031 374.921875 305.609375 372.273438 327.726562 C 369.628906 349.84375 401.40625 340.003906 381.5 350 "/>
<path style="fill:none;stroke-width:1;stroke-linecap:butt;stroke-linejoin:round;stroke:rgb(0%,0%,0%);stroke-opacity:0.2;stroke-miterlimit:10;" d="M 380 350 C 360.960938 359.351562 392.21875 368.257812 371.214844 371.214844 C 350.207031 374.167969 364.984375 395.015625 350 380 C 335.015625 364.984375 317.242188 389.011719 328.785156 371.214844 C 340.332031 353.417969 312.601562 369.882812 320 350 C 327.398438 330.117188 308.164062 323.8125 328.785156 328.785156 C 349.410156 333.757812 330.871094 310.828125 350 320 C 369.128906 329.171875 373.722656 307.722656 371.214844 328.785156 C 368.707031 349.851562 399.039062 340.648438 380 350 "/>
<path style="fill:none;stroke-width:1;stroke-linecap:butt;stroke-linejoin:round;stroke:rgb(0%,0%,0%);stroke-opacity:0.2;stroke-miterlimit:10;" d="M 378.5 350 C 360.332031 358.722656 390.113281 367.371094 370.152344 370.152344 C 350.191406 372.933594 364.214844 392.785156 350 378.5 C 335.785156 364.214844 318.769531 386.988281 329.847656 370.152344 C 340.925781 353.316406 314.714844 368.976562 321.5 350 C 328.285156 331.023438 310.300781 324.945312 329.847656 329.847656 C 349.394531 334.75 331.851562 312.742188 350 321.5 C 368.148438 330.257812 372.523438 309.835938 370.152344 329.847656 C 367.78125 349.859375 396.667969 341.277344 378.5 350 "/>
<path style="fill:none;stroke-width:1;stroke-linecap:butt;stroke-linejoin:round;stroke:rgb(0%,0%,0%);stroke-opacity:0.2;stroke-miterlimit:10;" d="M 377 350 C 359.71875 358.113281 388.003906 366.484375 369.09375 369.09375 C 350.179688 371.699219 363.445312 390.554688 350 377 C 336.554688 363.445312 320.3125 384.972656 330.90625 369.09375 C 341.503906 353.210938 316.800781 368.058594 323 350 C 329.199219 331.941406 312.433594 326.09375 330.90625 330.90625 C 349.382812 335.71875 332.824219 314.660156 350 323 C 367.175781 331.339844 371.328125 311.949219 369.09375 330.90625 C 366.855469 349.867188 394.28125 341.886719 377 350 "/>
<path style="fill:none;stroke-width:1;stroke-linecap:butt;stroke-linejoin:round;stroke:rgb(0%,0%,0%);stroke-opacity:0.2;stroke-miterlimit:10;" d="M 375.5 350 C 359.109375 357.519531 385.898438 365.59375 368.03125 368.03125 C 350.164062 370.46875 362.675781 388.324219 350 375.5 C 337.324219 362.675781 321.863281 382.964844 331.96875 368.03125 C 342.074219 353.097656 318.863281 367.128906 324.5 350 C 330.136719 332.871094 314.5625 327.265625 331.96875 331.96875 C 349.375 336.671875 333.796875 316.585938 350 324.5 C 366.203125 332.414062 370.132812 314.058594 368.03125 331.96875 C 365.929688 349.878906 391.890625 342.480469 375.5 350 "/>
<path style="fill:none;stroke-width:1;stroke-linecap:butt;stroke-linejoin:round;stroke:rgb(0%,0%,0%);stroke-opacity:0.2;stroke-miterlimit:10;" d="M 374 350 C 358.511719 356.941406 383.789062 364.699219 366.96875 366.96875 C 350.152344 369.242188 361.914062 386.085938 350 374 C 338.085938 361.914062 323.425781 380.960938 333.03125 366.96875 C 342.632812 352.976562 320.902344 366.1875 326 350 C 331.097656 333.8125 316.6875 328.453125 333.03125 333.03125 C 349.371094 337.605469 334.769531 318.515625 350 326 C 365.230469 333.484375 368.9375 316.171875 366.96875 333.03125 C 365.003906 349.886719 389.488281 343.058594 374 350 "/>
<path style="fill:none;stroke-width:1;stroke-linecap:butt;stroke-linejoin:round;stroke:rgb(0%,0%,0%);stroke-opacity:0.2;stroke-miterlimit:10;" d="M 372.5 350 C 357.925781 356.378906 381.679688 363.800781 365.910156 365.910156 C 350.140625 368.015625 361.148438 383.847656 350 372.5 C 338.851562 361.152344 325.003906 378.96875 334.089844 365.910156 C 343.179688 352.851562 322.914062 365.234375 327.5 350 C 332.085938 334.765625 318.808594 329.660156 334.089844 334.089844 C 349.371094 338.519531 335.738281 320.449219 350 327.5 C 364.261719 334.550781 367.746094 318.285156 365.910156 334.089844 C 364.074219 349.894531 387.074219 343.621094 372.5 350 "/>
<path style="fill:none;stroke-width:1;stroke-linecap:butt;stroke-linejoin:round;stroke:rgb(0%,0%,0%);stroke-opacity:0.2;stroke-miterlimit:10;" d="M 371 350 C 357.34375 355.832031 379.570312 362.902344 364.847656 364.847656 C 350.128906 366.796875 360.390625 381.609375 350 371 C 339.609375 360.390625 326.589844 376.980469 335.152344 364.847656 C 343.710938 352.714844 324.902344 364.273438 329 350 C 333.097656 335.726562 320.925781 330.886719 335.152344 335.152344 C 349.375 339.414062 336.707031 322.386719 350 329 C 363.292969 335.613281 366.550781 320.398438 364.847656 335.152344 C 363.144531 349.902344 384.65625 344.167969 371 350 "/>
<path style="fill:none;stroke-width:1;stroke-linecap:butt;stroke-linejoin:round;stroke:rgb(0%,0%,0%);stroke-opacity:0.2;stroke-miterlimit:10;" d="M 369.5 350 C 356.773438 355.304688 377.460938 362 363.789062 363.789062 C 350.117188 365.578125 359.632812 379.367188 350 369.5 C 340.367188 359.632812 328.1875 375.003906 336.210938 363.789062 C 344.234375 352.574219 326.863281 363.300781 330.5 350 C 334.136719 336.699219 323.039062 332.132812 336.210938 336.210938 C 349.382812 340.289062 337.667969 324.328125 350 330.5 C 362.332031 336.671875 365.363281 322.511719 363.789062 336.210938 C 362.214844 349.910156 382.226562 344.695312 369.5 350 "/>
<path style="fill:none;stroke-width:1;stroke-linecap:butt;stroke-linejoin:round;stroke:rgb(0%,0%,0%);stroke-opacity:0.2;stroke-miterlimit:10;" d="M 368 350 C 356.210938 354.792969 375.351562 361.09375 362.726562 362.726562 C 350.105469 364.363281 358.878906 377.121094 350 368 C 341.121094 358.878906 329.800781 373.03125 337.273438 362.726562 C 344.746094 352.425781 328.800781 362.320312 332 350 C 335.199219 337.679688 325.148438 333.398438 337.273438 337.273438 C 349.394531 341.148438 338.632812 326.277344 350 332 C 361.367188 337.722656 364.171875 324.625 362.726562 337.273438 C 361.28125 349.917969 379.789062 345.207031 368 350 "/>
<path style="fill:none;stroke-width:1;stroke-linecap:butt;stroke-linejoin:round;stroke:rgb(0%,0%,0%);stroke-opacity:0.2;stroke-miterlimit:10;" d="M 366.5 350 C 355.652344 354.296875 373.238281 360.1875 361.667969 361.667969 C 350.09375 363.148438 358.125 374.875 350 366.5 C 341.875 358.125 331.421875 371.066406 338.332031 361.667969 C 345.242188 352.265625 330.710938 361.328125 333.5 350 C 336.289062 338.671875 327.253906 334.679688 338.332031 338.332031 C 349.414062 341.984375 339.59375 328.226562 350 333.5 C 360.40625 338.773438 362.984375 326.738281 361.667969 338.332031 C 360.347656 349.925781 377.347656 345.703125 366.5 350 "/>
<path style="fill:none;stroke-width:1;stroke-linecap:butt;stroke-linejoin:round;stroke:rgb(0%,0%,0%);stroke-opacity:0.2;stroke-miterlimit:10;" d="M 365 350 C 355.105469 353.820312 371.128906 359.273438 360.605469 360.605469 C 350.085938 361.9375 357.375 372.625 350 365 C 342.625 357.375 333.054688 369.109375 339.394531 360.605469 C 345.730469 352.101562 332.597656 360.332031 335 350 C 337.402344 339.667969 329.351562 335.980469 339.394531 339.394531 C 349.4375 342.804688 340.550781 330.183594 350 335 C 359.449219 339.816406 361.796875 328.855469 360.605469 339.394531 C 359.414062 349.933594 374.894531 346.179688 365 350 "/>
<path style="fill:none;stroke-width:1;stroke-linecap:butt;stroke-linejoin:round;stroke:rgb(0%,0%,0%);stroke-opacity:0.2;stroke-miterlimit:10;" d="M 363.5 350 C 354.566406 353.359375 369.019531 358.359375 359.546875 359.546875 C 350.074219 360.730469 356.625 370.371094 350 363.5 C 343.375 356.628906 334.699219 367.164062 340.453125 359.546875 C 346.207031 351.929688 334.457031 359.324219 336.5 350 C 338.542969 340.675781 331.445312 337.300781 340.453125 340.453125 C 349.464844 343.609375 341.503906 332.144531 350 336.5 C 358.496094 340.855469 360.613281 330.96875 359.546875 340.453125 C 358.480469 349.941406 372.433594 346.640625 363.5 350 "/>
<path style="fill:none;stroke-width:1;stroke-linecap:butt;stroke-linejoin:round;stroke:rgb(0%,0%,0%);stroke-opacity:0.2;stroke-miterlimit:10;" d="M 362 350 C 354.03125 352.917969 366.90625 357.441406 358.484375 358.484375 C 350.0625 359.527344 355.878906 368.117188 350 362 C 344.121094 355.882812 336.355469 365.222656 341.515625 358.484375 C 346.671875 351.75 336.289062 358.3125 338 350 C 339.710938 341.6875 333.53125 338.640625 341.515625 341.515625 C 349.496094 344.390625 342.457031 334.109375 350 338 C 357.542969 341.890625 359.429688 333.082031 358.484375 341.515625 C 357.542969 349.949219 369.96875 347.082031 362 350 "/>
<path style="fill:none;stroke-width:1;stroke-linecap:butt;stroke-linejoin:round;stroke:rgb(0%,0%,0%);stroke-opacity:0.2;stroke-miterlimit:10;" d="M 360.5 350 C 353.503906 352.492188 364.792969 356.523438 357.425781 357.425781 C 350.054688 358.328125 355.136719 365.859375 350 360.5 C 344.863281 355.140625 338.023438 363.289062 342.574219 357.425781 C 347.128906 351.558594 338.097656 357.289062 339.5 350 C 340.902344 342.710938 335.613281 339.996094 342.574219 342.574219 C 349.539062 345.15625 343.410156 336.082031 350 339.5 C 356.589844 342.917969 358.246094 335.195312 357.425781 342.574219 C 356.601562 349.953125 367.496094 347.507812 360.5 350 "/>
<path style="fill:none;stroke-width:1;stroke-linecap:butt;stroke-linejoin:round;stroke:rgb(0%,0%,0%);stroke-opacity:0.2;stroke-miterlimit:10;" d="M 359 350 C 352.984375 352.082031 362.683594 355.597656 356.363281 356.363281 C 350.046875 357.128906 354.394531 363.601562 350 359 C 345.605469 354.398438 339.703125 361.367188 343.636719 356.363281 C 347.570312 351.363281 339.875 356.265625 341 350 C 342.125 343.734375 337.6875 341.371094 343.636719 343.636719 C 349.582031 345.902344 344.359375 338.054688 350 341 C 355.640625 343.945312 357.0625 337.3125 356.363281 343.636719 C 355.664062 349.960938 365.015625 347.917969 359 350 "/>
<path style="fill:none;stroke-width:1;stroke-linecap:butt;stroke-linejoin:round;stroke:rgb(0%,0%,0%);stroke-opacity:0.2;stroke-miterlimit:10;" d="M 357.5 350 C 352.472656 351.691406 360.570312 354.671875 355.304688 355.304688 C 350.039062 355.933594 353.65625 361.339844 350 357.5 C 346.34375 353.660156 341.390625 359.449219 344.695312 355.304688 C 348.003906 351.15625 341.628906 355.230469 342.5 350 C 343.371094 344.769531 339.757812 342.765625 344.695312 344.695312 C 349.636719 346.628906 345.304688 340.035156 350 342.5 C 354.695312 344.964844 355.882812 339.425781 355.304688 344.695312 C 354.722656 349.96875 362.527344 348.308594 357.5 350 "/>
<path style="fill:none;stroke-width:1;stroke-linecap:butt;stroke-linejoin:round;stroke:rgb(0%,0%,0%);stroke-opacity:0.2;stroke-miterlimit:10;" d="M 356 350 C 351.96875 351.316406 358.457031 353.746094 354.242188 354.242188 C 350.03125 354.742188 352.921875 359.078125 350 356 C 347.078125 352.921875 343.089844 357.542969 345.757812 354.242188 C 348.421875 350.941406 343.359375 354.195312 344 350 C 344.640625 345.804688 341.820312 344.175781 345.757812 345.757812 C 349.695312 347.339844 346.25 342.019531 350 344 C 353.75 345.980469 354.703125 341.539062 354.242188 345.757812 C 353.78125 349.976562 360.03125 348.683594 356 350 "/>
<path style="fill:none;stroke-width:1;stroke-linecap:butt;stroke-linejoin:round;stroke:rgb(0%,0%,0%);stroke-opacity:0.2;stroke-miterlimit:10;" d="M 354.5 350 C 351.464844 350.960938 356.34375 352.8125 353.183594 353.183594 C 350.019531 353.550781 352.1875 356.8125 350 354.5 C 347.8125 352.1875 344.800781 355.644531 346.816406 353.183594 C 348.832031 350.71875 345.058594 353.152344 345.5 350 C 345.941406 346.847656 343.875 345.605469 346.816406 346.816406 C 349.757812 348.03125 347.191406 344.007812 350 345.5 C 352.808594 346.992188 353.527344 343.65625 353.183594 346.816406 C 352.835938 349.980469 357.535156 349.039062 354.5 350 "/>
<path style="fill:none;stroke-width:1;stroke-linecap:butt;stroke-linejoin:round;stroke:rgb(0%,0%,0%);stroke-opacity:0.2;stroke-miterlimit:10;" d="M 353 350 C 350.972656 350.621094 354.230469 351.878906 352.121094 352.121094 C 350.015625 352.363281 351.457031 354.542969 350 353 C 348.542969 351.457031 346.523438 353.753906 347.878906 352.121094 C 349.234375 350.488281 346.734375 352.105469 347 350 C 347.265625 347.894531 345.925781 347.050781 347.878906 347.878906 C 349.832031 348.707031 348.128906 346 350 347 C 351.871094 348 352.351562 345.769531 352.121094 347.878906 C 351.894531 349.988281 355.027344 349.378906 353 350 "/>
<path style="fill:none;stroke-width:1;stroke-linecap:butt;stroke-linejoin:round;stroke:rgb(0%,0%,0%);stroke-opacity:0.2;stroke-miterlimit:10;" d="M 351.5 350 C 350.484375 350.300781 352.113281 350.941406 351.0625 351.0625 C 350.007812 351.179688 350.726562 352.273438 350 351.5 C 349.273438 350.726562 348.257812 351.871094 348.9375 351.0625 C 349.621094 350.25 348.378906 351.054688 348.5 350 C 348.621094 348.945312 347.964844 348.515625 348.9375 348.9375 C 349.914062 349.363281 349.066406 347.996094 350 348.5 C 350.933594 349.003906 351.175781 347.886719 351.0625 348.9375 C 350.945312 349.992188 352.515625 349.699219 351.5 350 "/>
</g>
</svg>
