<?xml version="1.0" encoding="UTF-8"?>
<svg xmlns="http://www.w3.org/2000/svg" xmlns:xlink="http://www.w3.org/1999/xlink" width="700pt" height="700pt" viewBox="0 0 700 700" version="1.1">
<g id="surface1">
<path style="fill:none;stroke-width:2;stroke-linecap:butt;stroke-linejoin:round;stroke:rgb(0%,0%,0%);stroke-opacity:1;stroke-miterlimit:10;" d="M 500 350 C 450.238281 422.78125 557.425781 419.058594 471.351562 438.167969 C 385.28125 457.273438 481.425781 469.5 396.351562 492.660156 C 311.28125 515.820312 291.785156 580.023438 303.648438 492.660156 C 315.511719 405.292969 267.972656 517.078125 228.648438 438.167969 C 189.320312 359.257812 149.320312 422.148438 200 350 C 250.679688 277.851562 155.746094 311.421875 228.648438 261.832031 C 301.546875 212.242188 244.570312 141.894531 303.648438 207.339844 C 362.726562 272.789062 326.328125 153.765625 396.351562 207.339844 C 466.375 260.917969 475.828125 173.777344 471.351562 261.832031 C 466.878906 349.886719 549.761719 277.21875 500 350 "/>
</g>
</svg>
