<?xml version="1.0" encoding="UTF-8"?>
<svg xmlns="http://www.w3.org/2000/svg" xmlns:xlink="http://www.w3.org/1999/xlink" width="600pt" height="600pt" viewBox="0 0 600 600" version="1.1">
<g id="surface1">
<path style="fill:none;stroke-width:2;stroke-linecap:butt;stroke-linejoin:round;stroke:rgb(50%,50%,50%);stroke-opacity:1;stroke-miterlimit:10;" d="M 500 300 C 500 410.457031 410.457031 500 300 500 C 189.542969 500 100 410.457031 100 300 C 100 189.542969 189.542969 100 300 100 C 410.457031 100 500 189.542969 500 300 "/>
<path style=" stroke:none;fill-rule:nonzero;fill:rgb(100%,0%,0%);fill-opacity:1;" d="M 505 300 C 505 306.667969 495 306.667969 495 300 C 495 293.332031 505 293.332031 505 300 "/>
<path style="fill:none;stroke-width:2;stroke-linecap:butt;stroke-linejoin:round;stroke:rgb(100%,0%,0%);stroke-opacity:1;stroke-miterlimit:10;" d="M 600 300 C 600 355.226562 555.226562 400 500 400 C 444.773438 400 400 355.226562 400 300 C 400 244.773438 444.773438 200 500 200 C 555.226562 200 600 244.773438 600 300 "/>
<path style=" stroke:none;fill-rule:nonzero;fill:rgb(100%,0%,0%);fill-opacity:1;" d="M 405 473.207031 C 405 479.871094 395 479.871094 395 473.207031 C 395 466.539062 405 466.539062 405 473.207031 "/>
<path style="fill:none;stroke-width:2;stroke-linecap:butt;stroke-linejoin:round;stroke:rgb(100%,0%,0%);stroke-opacity:1;stroke-miterlimit:10;" d="M 500 473.207031 C 500 528.433594 455.226562 573.207031 400 573.207031 C 344.773438 573.207031 300 528.433594 300 473.207031 C 300 417.976562 344.773438 373.207031 400 373.207031 C 455.226562 373.207031 500 417.976562 500 473.207031 "/>
<path style=" stroke:none;fill-rule:nonzero;fill:rgb(100%,0%,0%);fill-opacity:1;" d="M 205 473.207031 C 205 479.871094 195 479.871094 195 473.207031 C 195 466.539062 205 466.539062 205 473.207031 "/>
<path style="fill:none;stroke-width:2;stroke-linecap:butt;stroke-linejoin:round;stroke:rgb(100%,0%,0%);stroke-opacity:1;stroke-miterlimit:10;" d="M 300 473.207031 C 300 528.433594 255.226562 573.207031 200 573.207031 C 144.773438 573.207031 100 528.433594 100 473.207031 C 100 417.976562 144.773438 373.207031 200 373.207031 C 255.226562 373.207031 300 417.976562 300 473.207031 "/>
<path style=" stroke:none;fill-rule:nonzero;fill:rgb(100%,0%,0%);fill-opacity:1;" d="M 105 300 C 105 306.667969 95 306.667969 95 300 C 95 293.332031 105 293.332031 105 300 "/>
<path style="fill:none;stroke-width:2;stroke-linecap:butt;stroke-linejoin:round;stroke:rgb(100%,0%,0%);stroke-opacity:1;stroke-miterlimit:10;" d="M 200 300 C 200 355.226562 155.226562 400 100 400 C 44.773438 400 0 355.226562 0 300 C 0 244.773438 44.773438 200 100 200 C 155.226562 200 200 244.773438 200 300 "/>
<path style=" stroke:none;fill-rule:nonzero;fill:rgb(100%,0%,0%);fill-opacity:1;" d="M 205 126.792969 C 205 133.460938 195 133.460938 195 126.792969 C 195 120.128906 205 120.128906 205 126.792969 "/>
<path style="fill:none;stroke-width:2;stroke-linecap:butt;stroke-linejoin:round;stroke:rgb(100%,0%,0%);stroke-opacity:1;stroke-miterlimit:10;" d="M 300 126.792969 C 300 182.023438 255.226562 226.792969 200 226.792969 C 144.773438 226.792969 100 182.023438 100 126.792969 C 100 71.566406 144.773438 26.792969 200 26.792969 C 255.226562 26.792969 300 71.566406 300 126.792969 "/>
<path style=" stroke:none;fill-rule:nonzero;fill:rgb(100%,0%,0%);fill-opacity:1;" d="M 405 126.792969 C 405 133.460938 395 133.460938 395 126.792969 C 395 120.128906 405 120.128906 405 126.792969 "/>
<path style="fill:none;stroke-width:2;stroke-linecap:butt;stroke-linejoin:round;stroke:rgb(100%,0%,0%);stroke-opacity:1;stroke-miterlimit:10;" d="M 500 126.792969 C 500 182.023438 455.226562 226.792969 400 226.792969 C 344.773438 226.792969 300 182.023438 300 126.792969 C 300 71.566406 344.773438 26.792969 400 26.792969 C 455.226562 26.792969 500 71.566406 500 126.792969 "/>
<path style=" stroke:none;fill-rule:nonzero;fill:rgb(0%,100%,0%);fill-opacity:1;" d="M 549.316406 210.355469 C 549.316406 217.023438 539.316406 217.023438 539.316406 210.355469 C 539.316406 203.6875 549.316406 203.6875 549.316406 210.355469 "/>
<path style=" stroke:none;fill-rule:nonzero;fill:rgb(0%,0%,100%);fill-opacity:1;" d="M 460.683594 389.644531 C 460.683594 396.3125 450.683594 396.3125 450.683594 389.644531 C 450.683594 382.976562 460.683594 382.976562 460.683594 389.644531 "/>
<path style=" stroke:none;fill-rule:nonzero;fill:rgb(0%,100%,0%);fill-opacity:1;" d="M 504.570312 463.964844 C 504.570312 470.632812 494.570312 470.632812 494.570312 463.964844 C 494.570312 457.300781 504.570312 457.300781 504.570312 463.964844 "/>
<path style=" stroke:none;fill-rule:nonzero;fill:rgb(0%,0%,100%);fill-opacity:1;" d="M 305.429688 482.445312 C 305.429688 489.109375 295.429688 489.109375 295.429688 482.445312 C 295.429688 475.777344 305.429688 475.777344 305.429688 482.445312 "/>
<path style=" stroke:none;fill-rule:nonzero;fill:rgb(0%,100%,0%);fill-opacity:1;" d="M 270.089844 549.121094 C 270.089844 555.789062 260.089844 555.789062 260.089844 549.121094 C 260.089844 542.453125 270.089844 542.453125 270.089844 549.121094 "/>
<path style=" stroke:none;fill-rule:nonzero;fill:rgb(0%,0%,100%);fill-opacity:1;" d="M 139.910156 397.289062 C 139.910156 403.957031 129.910156 403.957031 129.910156 397.289062 C 129.910156 390.621094 139.910156 390.621094 139.910156 397.289062 "/>
<path style=" stroke:none;fill-rule:nonzero;fill:rgb(0%,100%,0%);fill-opacity:1;" d="M 52.285156 384.976562 C 52.285156 391.644531 42.285156 391.644531 42.285156 384.976562 C 42.285156 378.3125 52.285156 378.3125 52.285156 384.976562 "/>
<path style=" stroke:none;fill-rule:nonzero;fill:rgb(0%,0%,100%);fill-opacity:1;" d="M 157.714844 215.023438 C 157.714844 221.6875 147.714844 221.6875 147.714844 215.023438 C 147.714844 208.355469 157.714844 208.355469 157.714844 215.023438 "/>
<path style=" stroke:none;fill-rule:nonzero;fill:rgb(0%,100%,0%);fill-opacity:1;" d="M 118.144531 77.234375 C 118.144531 83.902344 108.144531 83.902344 108.144531 77.234375 C 108.144531 70.570312 118.144531 70.570312 118.144531 77.234375 "/>
<path style=" stroke:none;fill-rule:nonzero;fill:rgb(0%,0%,100%);fill-opacity:1;" d="M 291.855469 176.355469 C 291.855469 183.019531 281.855469 183.019531 281.855469 176.355469 C 281.855469 169.6875 291.855469 169.6875 291.855469 176.355469 "/>
<path style=" stroke:none;fill-rule:nonzero;fill:rgb(0%,100%,0%);fill-opacity:1;" d="M 390.371094 27.871094 C 390.371094 34.539062 380.371094 34.539062 380.371094 27.871094 C 380.371094 21.203125 390.371094 21.203125 390.371094 27.871094 "/>
<path style=" stroke:none;fill-rule:nonzero;fill:rgb(0%,0%,100%);fill-opacity:1;" d="M 419.628906 225.71875 C 419.628906 232.386719 409.628906 232.386719 409.628906 225.71875 C 409.628906 219.050781 419.628906 219.050781 419.628906 225.71875 "/>
<path style="fill:none;stroke-width:2;stroke-linecap:butt;stroke-linejoin:round;stroke:rgb(0%,0%,0%);stroke-opacity:1;stroke-miterlimit:10;" d="M 500 300 C 455.683594 389.644531 499.570312 463.964844 400 473.207031 C 300.429688 482.445312 265.089844 549.121094 200 473.207031 C 134.910156 397.289062 47.285156 384.976562 100 300 C 152.714844 215.023438 113.144531 77.234375 200 126.792969 C 286.855469 176.355469 385.371094 27.871094 400 126.792969 C 414.628906 225.71875 544.316406 210.355469 500 300 "/>
<path style=" stroke:none;fill-rule:nonzero;fill:rgb(0%,0%,0%);fill-opacity:0.2;" d="M 500 300 L 455.683594 389.644531 L 499.570312 463.964844 L 400 473.207031 "/>
<path style=" stroke:none;fill-rule:nonzero;fill:rgb(0%,0%,0%);fill-opacity:0.2;" d="M 400 473.207031 L 300.429688 482.445312 L 265.089844 549.121094 L 200 473.207031 "/>
<path style=" stroke:none;fill-rule:nonzero;fill:rgb(0%,0%,0%);fill-opacity:0.2;" d="M 200 473.207031 L 134.910156 397.289062 L 47.285156 384.976562 L 100 300 "/>
<path style=" stroke:none;fill-rule:nonzero;fill:rgb(0%,0%,0%);fill-opacity:0.2;" d="M 100 300 L 152.714844 215.023438 L 113.144531 77.234375 L 200 126.792969 "/>
<path style=" stroke:none;fill-rule:nonzero;fill:rgb(0%,0%,0%);fill-opacity:0.2;" d="M 200 126.792969 L 286.855469 176.355469 L 385.371094 27.871094 L 400 126.792969 "/>
<path style=" stroke:none;fill-rule:nonzero;fill:rgb(0%,0%,0%);fill-opacity:0.2;" d="M 400 126.792969 L 414.628906 225.71875 L 544.316406 210.355469 L 500 300 "/>
</g>
</svg>
