<?xml version="1.0" encoding="UTF-8"?>
<svg xmlns="http://www.w3.org/2000/svg" xmlns:xlink="http://www.w3.org/1999/xlink" width="700pt" height="700pt" viewBox="0 0 700 700" version="1.1">
<g id="surface1">
<path style="fill:none;stroke-width:2;stroke-linecap:butt;stroke-linejoin:round;stroke:rgb(0%,0%,0%);stroke-opacity:1;stroke-miterlimit:10;" d="M 500 350 C 452.769531 471.015625 528.921875 557.847656 425 479.902344 C 321.078125 401.960938 253.554688 608.023438 275 479.902344 C 296.445312 351.78125 72.761719 376.183594 200 350 C 327.238281 323.816406 155.378906 270.75 275 220.097656 C 394.621094 169.441406 480.507812 102.648438 425 220.097656 C 369.492188 337.542969 547.230469 228.984375 500 350 "/>
<path style="fill:none;stroke-width:2;stroke-linecap:butt;stroke-linejoin:round;stroke:rgb(50%,50%,50%);stroke-opacity:1;stroke-miterlimit:10;" d="M 500 350 C 500 432.84375 432.84375 500 350 500 C 267.15625 500 200 432.84375 200 350 C 200 267.15625 267.15625 200 350 200 C 432.84375 200 500 267.15625 500 350 "/>
<path style=" stroke:none;fill-rule:nonzero;fill:rgb(100%,0%,0%);fill-opacity:1;" d="M 430 479.902344 C 430 486.570312 420 486.570312 420 479.902344 C 420 473.238281 430 473.238281 430 479.902344 "/>
<path style="fill:none;stroke-width:2;stroke-linecap:butt;stroke-linejoin:round;stroke:rgb(100%,0%,0%);stroke-opacity:1;stroke-miterlimit:10;" d="M 554.902344 479.902344 C 554.902344 551.648438 496.742188 609.808594 425 609.808594 C 353.257812 609.808594 295.097656 551.648438 295.097656 479.902344 C 295.097656 408.160156 353.257812 350 425 350 C 496.742188 350 554.902344 408.160156 554.902344 479.902344 "/>
<path style=" stroke:none;fill-rule:nonzero;fill:rgb(100%,0%,0%);fill-opacity:1;" d="M 280 479.902344 C 280 486.570312 270 486.570312 270 479.902344 C 270 473.238281 280 473.238281 280 479.902344 "/>
<path style="fill:none;stroke-width:2;stroke-linecap:butt;stroke-linejoin:round;stroke:rgb(100%,0%,0%);stroke-opacity:1;stroke-miterlimit:10;" d="M 404.902344 479.902344 C 404.902344 551.648438 346.742188 609.808594 275 609.808594 C 203.257812 609.808594 145.097656 551.648438 145.097656 479.902344 C 145.097656 408.160156 203.257812 350 275 350 C 346.742188 350 404.902344 408.160156 404.902344 479.902344 "/>
<path style=" stroke:none;fill-rule:nonzero;fill:rgb(100%,0%,0%);fill-opacity:1;" d="M 205 350 C 205 356.667969 195 356.667969 195 350 C 195 343.332031 205 343.332031 205 350 "/>
<path style="fill:none;stroke-width:2;stroke-linecap:butt;stroke-linejoin:round;stroke:rgb(100%,0%,0%);stroke-opacity:1;stroke-miterlimit:10;" d="M 329.902344 350 C 329.902344 421.742188 271.742188 479.902344 200 479.902344 C 128.257812 479.902344 70.097656 421.742188 70.097656 350 C 70.097656 278.257812 128.257812 220.097656 200 220.097656 C 271.742188 220.097656 329.902344 278.257812 329.902344 350 "/>
<path style=" stroke:none;fill-rule:nonzero;fill:rgb(100%,0%,0%);fill-opacity:1;" d="M 280 220.097656 C 280 226.761719 270 226.761719 270 220.097656 C 270 213.429688 280 213.429688 280 220.097656 "/>
<path style="fill:none;stroke-width:2;stroke-linecap:butt;stroke-linejoin:round;stroke:rgb(100%,0%,0%);stroke-opacity:1;stroke-miterlimit:10;" d="M 404.902344 220.097656 C 404.902344 291.839844 346.742188 350 275 350 C 203.257812 350 145.097656 291.839844 145.097656 220.097656 C 145.097656 148.351562 203.257812 90.191406 275 90.191406 C 346.742188 90.191406 404.902344 148.351562 404.902344 220.097656 "/>
<path style=" stroke:none;fill-rule:nonzero;fill:rgb(100%,0%,0%);fill-opacity:1;" d="M 430 220.097656 C 430 226.761719 420 226.761719 420 220.097656 C 420 213.429688 430 213.429688 430 220.097656 "/>
<path style="fill:none;stroke-width:2;stroke-linecap:butt;stroke-linejoin:round;stroke:rgb(100%,0%,0%);stroke-opacity:1;stroke-miterlimit:10;" d="M 554.902344 220.097656 C 554.902344 291.839844 496.742188 350 425 350 C 353.257812 350 295.097656 291.839844 295.097656 220.097656 C 295.097656 148.351562 353.257812 90.191406 425 90.191406 C 496.742188 90.191406 554.902344 148.351562 554.902344 220.097656 "/>
<path style=" stroke:none;fill-rule:nonzero;fill:rgb(100%,0%,0%);fill-opacity:1;" d="M 505 350 C 505 356.667969 495 356.667969 495 350 C 495 343.332031 505 343.332031 505 350 "/>
<path style="fill:none;stroke-width:2;stroke-linecap:butt;stroke-linejoin:round;stroke:rgb(100%,0%,0%);stroke-opacity:1;stroke-miterlimit:10;" d="M 629.902344 350 C 629.902344 421.742188 571.742188 479.902344 500 479.902344 C 428.257812 479.902344 370.097656 421.742188 370.097656 350 C 370.097656 278.257812 428.257812 220.097656 500 220.097656 C 571.742188 220.097656 629.902344 278.257812 629.902344 350 "/>
<path style=" stroke:none;fill-rule:nonzero;fill:rgb(0%,100%,0%);fill-opacity:1;" d="M 457.769531 471.015625 C 457.769531 477.679688 447.769531 477.679688 447.769531 471.015625 C 447.769531 464.347656 457.769531 464.347656 457.769531 471.015625 "/>
<path style=" stroke:none;fill-rule:nonzero;fill:rgb(0%,0%,100%);fill-opacity:1;" d="M 533.921875 557.847656 C 533.921875 564.515625 523.921875 564.515625 523.921875 557.847656 C 523.921875 551.179688 533.921875 551.179688 533.921875 557.847656 "/>
<path style=" stroke:none;fill-rule:nonzero;fill:rgb(0%,100%,0%);fill-opacity:1;" d="M 326.078125 401.960938 C 326.078125 408.628906 316.078125 408.628906 316.078125 401.960938 C 316.078125 395.292969 326.078125 395.292969 326.078125 401.960938 "/>
<path style=" stroke:none;fill-rule:nonzero;fill:rgb(0%,0%,100%);fill-opacity:1;" d="M 258.554688 608.023438 C 258.554688 614.691406 248.554688 614.691406 248.554688 608.023438 C 248.554688 601.359375 258.554688 601.359375 258.554688 608.023438 "/>
<path style=" stroke:none;fill-rule:nonzero;fill:rgb(0%,100%,0%);fill-opacity:1;" d="M 301.445312 351.78125 C 301.445312 358.449219 291.445312 358.449219 291.445312 351.78125 C 291.445312 345.117188 301.445312 345.117188 301.445312 351.78125 "/>
<path style=" stroke:none;fill-rule:nonzero;fill:rgb(0%,0%,100%);fill-opacity:1;" d="M 77.761719 376.183594 C 77.761719 382.851562 67.761719 382.851562 67.761719 376.183594 C 67.761719 369.515625 77.761719 369.515625 77.761719 376.183594 "/>
<path style=" stroke:none;fill-rule:nonzero;fill:rgb(0%,100%,0%);fill-opacity:1;" d="M 332.238281 323.816406 C 332.238281 330.484375 322.238281 330.484375 322.238281 323.816406 C 322.238281 317.148438 332.238281 317.148438 332.238281 323.816406 "/>
<path style=" stroke:none;fill-rule:nonzero;fill:rgb(0%,0%,100%);fill-opacity:1;" d="M 160.378906 270.75 C 160.378906 277.417969 150.378906 277.417969 150.378906 270.75 C 150.378906 264.082031 160.378906 264.082031 160.378906 270.75 "/>
<path style=" stroke:none;fill-rule:nonzero;fill:rgb(0%,100%,0%);fill-opacity:1;" d="M 399.621094 169.441406 C 399.621094 176.109375 389.621094 176.109375 389.621094 169.441406 C 389.621094 162.773438 399.621094 162.773438 399.621094 169.441406 "/>
<path style=" stroke:none;fill-rule:nonzero;fill:rgb(0%,0%,100%);fill-opacity:1;" d="M 485.507812 102.648438 C 485.507812 109.316406 475.507812 109.316406 475.507812 102.648438 C 475.507812 95.980469 485.507812 95.980469 485.507812 102.648438 "/>
<path style=" stroke:none;fill-rule:nonzero;fill:rgb(0%,100%,0%);fill-opacity:1;" d="M 374.492188 337.542969 C 374.492188 344.210938 364.492188 344.210938 364.492188 337.542969 C 364.492188 330.878906 374.492188 330.878906 374.492188 337.542969 "/>
<path style=" stroke:none;fill-rule:nonzero;fill:rgb(0%,0%,100%);fill-opacity:1;" d="M 552.230469 228.984375 C 552.230469 235.652344 542.230469 235.652344 542.230469 228.984375 C 542.230469 222.320312 552.230469 222.320312 552.230469 228.984375 "/>
<path style=" stroke:none;fill-rule:nonzero;fill:rgb(0%,0%,0%);fill-opacity:0.2;" d="M 452.769531 471.015625 L 500 350 L 528.921875 557.847656 L 425 479.902344 L 452.769531 471.015625 "/>
<path style=" stroke:none;fill-rule:nonzero;fill:rgb(0%,0%,0%);fill-opacity:0.2;" d="M 321.078125 401.960938 L 425 479.902344 L 253.554688 608.023438 L 275 479.902344 L 321.078125 401.960938 "/>
<path style=" stroke:none;fill-rule:nonzero;fill:rgb(0%,0%,0%);fill-opacity:0.2;" d="M 296.445312 351.78125 L 275 479.902344 L 72.761719 376.183594 L 200 350 L 296.445312 351.78125 "/>
<path style=" stroke:none;fill-rule:nonzero;fill:rgb(0%,0%,0%);fill-opacity:0.2;" d="M 327.238281 323.816406 L 200 350 L 155.378906 270.75 L 275 220.097656 L 327.238281 323.816406 "/>
<path style=" stroke:none;fill-rule:nonzero;fill:rgb(0%,0%,0%);fill-opacity:0.2;" d="M 394.621094 169.441406 L 275 220.097656 L 480.507812 102.648438 L 425 220.097656 L 394.621094 169.441406 "/>
<path style=" stroke:none;fill-rule:nonzero;fill:rgb(0%,0%,0%);fill-opacity:0.2;" d="M 369.492188 337.542969 L 425 220.097656 L 547.230469 228.984375 L 500 350 L 369.492188 337.542969 "/>
</g>
</svg>
